<?xml version="1.0" encoding="utf-8"?>
<!-- Generator: Adobe Illustrator 27.5.0, SVG Export Plug-In . SVG Version: 6.00 Build 0)  -->
<svg version="1.1" id="Layer_1" xmlns="http://www.w3.org/2000/svg" xmlns:xlink="http://www.w3.org/1999/xlink" x="0px" y="0px"
	 viewBox="0 0 288 288" style="enable-background:new 0 0 288 288;" xml:space="preserve">
<g>
	<rect x="0" style="fill:#0E0E0E;" width="288" height="288"/>
	<g>
		<path style="fill:#FFAC0E;" d="M46.508,117.102c-0.984,0.214-1.157,0.386-1.37,1.37c-0.213-0.984-0.387-1.157-1.37-1.37
			c0.984-0.214,1.157-0.387,1.37-1.37C45.351,116.715,45.524,116.888,46.508,117.102z"/>
		<path style="fill:#FFAC0E;" d="M241.83,68.197c-1.363,0.296-1.603,0.535-1.898,1.898c-0.296-1.363-0.535-1.603-1.898-1.898
			c1.363-0.296,1.603-0.535,1.898-1.898C240.227,67.661,240.467,67.901,241.83,68.197z"/>
		<path style="fill:#FFAC0E;" d="M53.973,150.835c-3.018,0.655-3.549,1.186-4.204,4.204c-0.655-3.018-1.186-3.549-4.204-4.204
			c3.018-0.655,3.549-1.186,4.204-4.204C50.424,149.65,50.954,150.18,53.973,150.835z"/>
		<path style="fill:#FFAC0E;" d="M157.674,37.306c-2.528,0.548-2.972,0.993-3.521,3.521c-0.548-2.528-0.993-2.972-3.52-3.521
			c2.528-0.548,2.972-0.993,3.52-3.521C154.701,36.313,155.146,36.758,157.674,37.306z"/>
		<path style="fill:#FFAC0E;" d="M218.526,103.826c-2.597,0.563-3.054,1.02-3.617,3.617c-0.563-2.597-1.02-3.054-3.617-3.617
			c2.597-0.563,3.054-1.02,3.617-3.617C215.473,102.805,215.93,103.262,218.526,103.826z"/>
		<path style="fill:#FFAC0E;" d="M76.012,108.087c-2.731,0.593-3.212,1.073-3.804,3.804c-0.593-2.731-1.073-3.212-3.804-3.804
			c2.731-0.593,3.212-1.073,3.804-3.804C72.8,107.014,73.281,107.494,76.012,108.087z"/>
		<path style="fill:#FFAC0E;" d="M195.348,67.813c-3.465,0.752-4.074,1.361-4.826,4.826c-0.752-3.465-1.361-4.074-4.826-4.826
			c3.465-0.752,4.074-1.361,4.826-4.826C191.274,66.451,191.883,67.061,195.348,67.813z"/>
		<path style="fill:#FFAC0E;" d="M27.541,165.559c-1.039,0.225-1.222,0.408-1.447,1.447c-0.226-1.039-0.408-1.222-1.447-1.447
			c1.039-0.225,1.222-0.408,1.447-1.447C26.319,165.15,26.502,165.333,27.541,165.559z"/>
		<path style="fill:#FFAC0E;" d="M201.159,140.772c-2.74,0.595-3.222,1.077-3.817,3.817c-0.594-2.74-1.076-3.222-3.817-3.817
			c2.74-0.595,3.222-1.077,3.817-3.817C197.937,139.696,198.419,140.178,201.159,140.772z"/>
		<path style="fill:#FFAC0E;" d="M209.15,42.547c-1.084,0.235-1.275,0.426-1.51,1.51c-0.235-1.084-0.426-1.275-1.51-1.51
			c1.084-0.235,1.275-0.426,1.51-1.51C207.876,42.121,208.066,42.312,209.15,42.547z"/>
		<path style="fill:#FFAC0E;" d="M78.585,75.781c-1.222,0.265-1.437,0.48-1.702,1.702c-0.265-1.222-0.48-1.437-1.702-1.702
			c1.222-0.265,1.437-0.48,1.702-1.702C77.147,75.301,77.362,75.516,78.585,75.781z"/>
		<path style="fill:#FFAC0E;" d="M111.225,47.264c-1.033,0.224-1.214,0.406-1.438,1.438c-0.224-1.033-0.406-1.214-1.438-1.438
			c1.033-0.224,1.214-0.406,1.438-1.438C110.011,46.858,110.192,47.04,111.225,47.264z"/>
		<path style="fill:#FFAC0E;" d="M256.992,105.538c-0.977,0.212-1.149,0.384-1.362,1.362c-0.212-0.978-0.384-1.15-1.361-1.362
			c0.977-0.212,1.149-0.384,1.361-1.361C255.843,105.154,256.015,105.326,256.992,105.538z"/>
		<path style="fill:#FFAC0E;" d="M241.117,145.068c-3.092,0.671-3.636,1.215-4.307,4.307c-0.671-3.092-1.215-3.636-4.307-4.307
			c3.092-0.671,3.636-1.215,4.307-4.307C237.481,143.853,238.025,144.397,241.117,145.068z"/>
		<path style="fill:#FFAC0E;" d="M179.275,102.664c-0.951,0.206-1.119,0.374-1.325,1.325c-0.206-0.951-0.374-1.119-1.325-1.325
			c0.951-0.206,1.119-0.374,1.325-1.325C178.157,102.291,178.324,102.458,179.275,102.664z"/>
	</g>
	<g>
		<path style="fill:#FFAC0E;" d="M232.371,179.767c-36.682,27.786-86.872,9.068-103.071-23.231
			c-15.762-28.732-9.422-70.847,21.876-91.233c-4.395,7.325-9.466,16.704-10.693,22.525c-0.201,0.876-0.368,1.735-0.499,2.568
			c-8.008,33.759,16.19,85.276,63.665,91.764c2.006,0.294,5.072,0.567,7.494,0.613C216.819,182.979,225.064,181.648,232.371,179.767
			z"/>
		<path style="fill:#F2930E;" d="M232.371,179.767c-6.395,9.89-15.1,18.186-24.462,23.761
			c-21.307,13.053-48.565,14.618-71.975,3.313c-0.263-0.131-0.526-0.262-0.789-0.385c-0.876-0.438-1.735-0.886-2.585-1.341
			c-0.281-0.149-0.553-0.306-0.825-0.455h-0.008c-1.069-0.605-2.121-1.227-3.155-1.876c-0.228-0.149-0.456-0.289-0.675-0.438
			c-0.184-0.114-0.359-0.237-0.544-0.351c-0.253-0.167-0.508-0.333-0.754-0.5c-0.754-0.499-1.489-1.017-2.209-1.542
			c-0.061-0.053-0.123-0.097-0.193-0.141c-0.237-0.167-0.465-0.342-0.684-0.508c-0.219-0.167-0.456-0.333-0.675-0.508
			c-1.061-0.815-2.095-1.639-3.076-2.498c-0.211-0.167-0.421-0.342-0.632-0.544c-14.487-12.379-23.793-31.719-25.268-47.197
			c-0.009-0.088-0.018-0.166-0.026-0.245c-3.06-23.409,5.241-48.949,25.294-66.461c0.027-0.027,0.053-0.053,0.088-0.079
			c5.08-4.348,10.506-8.144,16.775-11.069c4.179-2.089,10.218-4.149,13.576-4.987c0.535-0.149,1.069-0.28,1.604-0.412
			c-40.993,28.831-39.762,91.306,3.427,117.251c0.14,0.096,0.28,0.176,0.429,0.263c0.684,0.421,1.394,0.833,2.121,1.245
			C184.197,198.197,212.188,194.383,232.371,179.767z"/>
	</g>
	<g>
		<path style="fill:#0E0E0E;" d="M169.284,206.58c0.665-1.418,1.001-3.015,0.911-4.688c-0.293-5.411-4.917-9.559-10.328-9.266
			c-1.557,0.084-3.003,0.537-4.276,1.254c0.27-1.097,0.387-2.25,0.323-3.436c-0.395-7.295-8.34-13.208-14.597-12.868
			c-1.919,0.104-3.698,0.672-5.252,1.576c0.005-0.429,0.019-0.857-0.005-1.292c-0.579-10.689-9.715-18.884-20.403-18.305
			c-9.342,0.506-16.779,7.548-18.117,16.452c-3.745-5.07-9.88-8.224-16.644-7.857c-8.868,0.481-16.002,6.857-17.85,15.117
			c-0.18,0.193-0.35,0.393-0.512,0.602c-2.219-1.446-4.892-2.237-7.738-2.083c-7.126,0.386-12.59,6.476-12.203,13.602
			c0.008,0.151,0.033,0.296,0.047,0.446c-1.473-0.951-3.245-1.471-5.13-1.369c-4.751,0.257-8.393,4.317-8.136,9.068
			c0.257,4.75,4.317,8.393,9.068,8.136c0.097-0.005,0.19-0.021,0.286-0.03c0.743,4.943,5.136,8.603,10.229,8.327
			c1.318-0.072,2.56-0.404,3.683-0.938c0.002,0.127-0.006,0.251,0.001,0.379c0.325,6.004,5.457,10.608,11.461,10.283
			c4.809-0.261,8.713-3.608,9.912-8.014c1.988,5.993,7.781,10.17,14.39,9.812c5.825-0.316,10.64-4.067,12.613-9.178
			c2.197,2.015,5.169,3.182,8.381,3.008c4.378-0.237,8.048-2.899,9.785-6.611c2.517,4.858,7.703,8.059,13.521,7.744
			c6.062-0.329,11.029-4.377,12.837-9.807c1.443,3.947,5.331,6.666,9.745,6.426c1.819-0.098,3.488-0.695,4.9-1.637
			c1.816,2.999,5.181,4.925,8.927,4.722c5.41-0.293,9.559-4.917,9.266-10.328C178.108,210.833,174.146,206.924,169.284,206.58z"/>
		<g>
			<path style="fill:#F2930E;" d="M169.543,211.359c4.057,0.287,7.478,3.06,8.66,6.87c0.15-0.775,0.22-1.578,0.176-2.402
				c-0.249-4.586-3.613-8.249-7.926-9.084C170.531,208.389,170.199,209.962,169.543,211.359z"/>
			<path style="fill:#F2930E;" d="M156.174,195.223c0.064,1.186-0.053,2.339-0.323,3.436c1.272-0.717,2.719-1.17,4.275-1.254
				c4.592-0.249,8.606,2.706,9.899,6.913c0.154-0.782,0.215-1.594,0.17-2.426c-0.293-5.411-4.917-9.559-10.328-9.266
				c-1.408,0.076-2.718,0.466-3.898,1.068C156.07,194.196,156.146,194.705,156.174,195.223z"/>
			<path style="fill:#F2930E;" d="M37.769,199.244c1.885-0.102,3.656,0.417,5.13,1.369c-0.014-0.149-0.039-0.295-0.047-0.446
				c-0.386-7.126,5.077-13.216,12.203-13.602c2.846-0.154,5.52,0.637,7.738,2.083c0.162-0.209,0.332-0.409,0.512-0.602
				c1.848-8.261,8.982-14.637,17.85-15.117c6.764-0.367,12.899,2.787,16.644,7.857c1.339-8.903,8.775-15.945,18.117-16.452
				c10.688-0.579,19.824,7.616,20.403,18.305c0.023,0.435,0.01,0.863,0.005,1.292c1.554-0.904,3.333-1.473,5.252-1.577
				c5.584-0.303,12.498,4.379,14.203,10.576c0.13-0.807,0.18-1.638,0.134-2.486c-0.395-7.295-8.34-13.208-14.597-12.868
				c-1.919,0.104-3.698,0.672-5.252,1.576c0.005-0.429,0.019-0.857-0.005-1.292c-0.579-10.689-9.715-18.884-20.403-18.305
				c-9.342,0.506-16.779,7.548-18.117,16.452c-3.745-5.07-9.88-8.224-16.644-7.857c-8.868,0.481-16.002,6.857-17.85,15.117
				c-0.18,0.193-0.35,0.393-0.512,0.602c-2.219-1.446-4.892-2.237-7.738-2.083c-7.126,0.386-12.59,6.476-12.203,13.602
				c0.008,0.151,0.033,0.296,0.047,0.446c-1.473-0.951-3.245-1.471-5.13-1.369c-4.751,0.257-8.393,4.317-8.136,9.068
				c0.045,0.83,0.212,1.623,0.473,2.371C30.689,202.262,33.848,199.457,37.769,199.244z"/>
		</g>
		<path style="fill:#F2930E;" d="M97.016,180.837c4.339-0.235,8.095,2.766,8.948,6.896c0.041-0.428,0.062-0.862,0.038-1.305
			c-0.259-4.781-4.345-8.447-9.127-8.188c-4.781,0.259-8.447,4.346-8.188,9.127c0.024,0.443,0.091,0.872,0.178,1.293
			C89.268,184.462,92.678,181.073,97.016,180.837z"/>
		<path style="fill:#F2930E;" d="M136.24,184.248c4.134,1.337,6.563,5.486,5.877,9.648c0.192-0.386,0.367-0.783,0.504-1.204
			c1.474-4.556-1.025-9.444-5.58-10.918c-4.555-1.475-9.445,1.024-10.919,5.578c-0.136,0.422-0.227,0.846-0.298,1.271
			C127.707,184.849,132.106,182.911,136.24,184.248z"/>
		<path style="fill:#F2930E;" d="M63.084,189.751c2.828-0.695,5.675,0.814,6.751,3.428c-0.027-0.288-0.067-0.576-0.138-0.864
			c-0.766-3.116-3.913-5.022-7.029-4.257c-3.117,0.765-5.023,3.913-4.257,7.028c0.071,0.289,0.168,0.563,0.278,0.83
			C58.433,193.101,60.257,190.445,63.084,189.751z"/>
	</g>
	<g>
		<path style="fill:#0E0E0E;" d="M250.818,222.77c0.48-1.022,0.722-2.174,0.656-3.38c-0.212-3.901-3.546-6.892-7.447-6.681
			c-1.123,0.061-2.166,0.387-3.083,0.904c0.194-0.791,0.279-1.623,0.233-2.478c-0.285-5.26-6.014-9.523-10.525-9.279
			c-1.383,0.075-2.667,0.485-3.787,1.137c0.003-0.309,0.013-0.618-0.004-0.931c-0.418-7.707-7.005-13.616-14.711-13.199
			c-6.736,0.365-12.098,5.443-13.063,11.862c-2.701-3.656-7.124-5.93-12.001-5.665c-6.394,0.347-11.538,4.944-12.871,10.9
			c-0.13,0.139-0.253,0.284-0.369,0.434c-1.6-1.043-3.527-1.613-5.58-1.502c-5.138,0.279-9.078,4.669-8.799,9.808
			c0.006,0.109,0.024,0.214,0.034,0.322c-1.062-0.686-2.339-1.061-3.699-0.987c-3.426,0.186-6.052,3.113-5.866,6.538
			c0.186,3.425,3.113,6.052,6.538,5.866c0.07-0.004,0.137-0.015,0.206-0.022c0.536,3.564,3.703,6.203,7.375,6.004
			c0.951-0.052,1.846-0.291,2.655-0.676c0.002,0.091-0.004,0.181,0.001,0.273c0.235,4.329,3.934,7.649,8.264,7.414
			c3.468-0.188,6.282-2.601,7.147-5.778c1.434,4.321,5.61,7.333,10.375,7.075c4.2-0.228,7.672-2.933,9.094-6.618
			c1.584,1.453,3.727,2.294,6.043,2.169c3.157-0.171,5.803-2.09,7.056-4.767c1.815,3.502,5.554,5.811,9.749,5.584
			c4.371-0.237,7.952-3.156,9.256-7.071c1.04,2.846,3.844,4.806,7.027,4.634c1.311-0.071,2.515-0.501,3.533-1.181
			c1.309,2.162,3.736,3.551,6.436,3.405c3.901-0.211,6.892-3.546,6.681-7.447C257.18,225.837,254.323,223.018,250.818,222.77z"/>
		<g>
			<path style="fill:#F2930E;" d="M251.005,226.215c2.925,0.207,5.392,2.206,6.244,4.954c0.109-0.559,0.159-1.137,0.127-1.732
				c-0.179-3.306-2.605-5.948-5.715-6.55C251.716,224.074,251.477,225.208,251.005,226.215z"/>
			<path style="fill:#F2930E;" d="M241.365,214.581c0.046,0.855-0.038,1.687-0.233,2.478c0.917-0.517,1.96-0.843,3.083-0.904
				c3.311-0.179,6.205,1.952,7.137,4.984c0.111-0.564,0.155-1.149,0.123-1.749c-0.212-3.901-3.546-6.892-7.447-6.681
				c-1.015,0.055-1.96,0.336-2.811,0.77C241.29,213.84,241.344,214.208,241.365,214.581z"/>
			<path style="fill:#F2930E;" d="M155.99,217.48c1.359-0.074,2.636,0.301,3.699,0.987c-0.01-0.108-0.028-0.212-0.034-0.322
				c-0.279-5.138,3.661-9.529,8.799-9.808c2.052-0.111,3.98,0.459,5.58,1.502c0.117-0.15,0.24-0.295,0.369-0.434
				c1.332-5.956,6.476-10.553,12.871-10.9c4.878-0.264,9.301,2.01,12.001,5.665c0.965-6.42,6.327-11.497,13.063-11.862
				c7.707-0.418,14.294,5.491,14.711,13.199c0.017,0.314,0.007,0.622,0.003,0.931c1.12-0.652,2.403-1.062,3.787-1.137
				c4.026-0.218,9.011,3.158,10.241,7.625c0.093-0.581,0.13-1.181,0.097-1.793c-0.285-5.26-6.014-9.523-10.525-9.279
				c-1.383,0.075-2.667,0.485-3.787,1.137c0.003-0.309,0.013-0.618-0.004-0.931c-0.418-7.707-7.005-13.616-14.711-13.199
				c-6.736,0.365-12.098,5.443-13.063,11.862c-2.701-3.656-7.124-5.93-12.001-5.665c-6.394,0.347-11.538,4.944-12.871,10.9
				c-0.13,0.139-0.253,0.284-0.369,0.434c-1.6-1.043-3.527-1.613-5.58-1.502c-5.138,0.279-9.078,4.669-8.799,9.808
				c0.006,0.109,0.024,0.214,0.034,0.322c-1.062-0.686-2.339-1.061-3.699-0.987c-3.426,0.186-6.052,3.113-5.866,6.538
				c0.032,0.598,0.153,1.171,0.341,1.709C150.886,219.656,153.163,217.634,155.99,217.48z"/>
		</g>
		<path style="fill:#F2930E;" d="M198.71,204.208c3.128-0.169,5.837,1.994,6.452,4.972c0.03-0.309,0.045-0.622,0.027-0.941
			c-0.187-3.447-3.133-6.091-6.581-5.904c-3.447,0.187-6.091,3.133-5.904,6.581c0.017,0.319,0.066,0.629,0.128,0.932
			C193.123,206.822,195.581,204.378,198.71,204.208z"/>
		<path style="fill:#F2930E;" d="M226.991,206.667c2.981,0.964,4.732,3.956,4.238,6.957c0.139-0.278,0.265-0.564,0.363-0.868
			c1.063-3.285-0.739-6.809-4.023-7.873c-3.285-1.063-6.81,0.738-7.873,4.022c-0.098,0.304-0.164,0.61-0.215,0.917
			C220.839,207.101,224.011,205.703,226.991,206.667z"/>
		<path style="fill:#F2930E;" d="M174.244,210.635c2.039-0.501,4.092,0.587,4.868,2.472c-0.019-0.208-0.049-0.415-0.099-0.623
			c-0.552-2.247-2.821-3.621-5.068-3.069c-2.247,0.552-3.622,2.821-3.069,5.068c0.051,0.208,0.121,0.406,0.201,0.598
			C170.89,213.051,172.205,211.136,174.244,210.635z"/>
	</g>
</g>
</svg>
