<?xml version="1.0" encoding="utf-8"?>
<!-- Generator: Adobe Illustrator 27.5.0, SVG Export Plug-In . SVG Version: 6.00 Build 0)  -->
<svg version="1.1" id="Layer_1" xmlns="http://www.w3.org/2000/svg" xmlns:xlink="http://www.w3.org/1999/xlink" x="0px" y="0px"
	 viewBox="0 0 397.745 359.306" style="enable-background:new 0 0 397.745 359.306;" xml:space="preserve">
<g>
	<g>
		<g>
			<g>
				<radialGradient id="SVGID_1_" cx="196.1208" cy="159.0072" r="195.2453" gradientUnits="userSpaceOnUse">
					<stop  offset="0" style="stop-color:#F2EA30"/>
					<stop  offset="1" style="stop-color:#F37B2D"/>
				</radialGradient>
				<path style="fill:url(#SVGID_1_);" d="M94.01,40.516c0,0,13.288,38.727-7.231,58.916c-20.517,20.189-51.954,7.84-51.954,7.84
					s19.963,14.675,17.724,35.21c-2.239,20.533-34.585,21.909-34.585,21.909s31.313,3.786,37.852,23.744
					c6.537,19.958-17.357,38.883-17.357,38.883s18.389-8.259,29.744,6.881c11.355,15.141-6.166,33.058-6.166,33.058
					s11.1-8.514,21.192-3.008c10.093,5.505,3.671,23.13,3.671,23.13s13.992-21.522,31.886-9.823
					c17.893,11.699,9.11,58.228,9.11,58.228s5.801-15.559,26.905-18.313c21.105-2.753,28.446,21.334,28.446,21.334
					s5.963-23.398,31.197-24.775c25.234-1.376,37.165,26.84,36.934,27.528c-0.23,0.689-3.443-33.281,25.92-46.349
					c29.365-13.067,57.352,13.547,57.352,13.547s-25.579-26.727-13.192-50.814c12.389-24.087,43.701-16.173,43.701-16.173
					s-18.582-10.667-8.603-24.086c0,0-6.71-7.053-3.44-18.753c3.269-11.699,26.667-16,26.667-16s-38.942-1.033-41.464-28.328
					c-2.521-27.301,14.224-43.817,14.224-43.817s-26.151,12.388-47.257-1.605c-21.105-13.995-6.193-51.846-6.193-51.846
					s-28.676,18.122-48.402,6.651c-19.73-11.468-16.748-45.646-16.748-45.646s-17.203,36.243-43.813,37.39
					c-26.611,1.148-46.109-37.39-46.109-37.39s8.257,33.721-12.847,38.766C110.068,61.85,94.01,40.516,94.01,40.516z"/>
			</g>
			<g style="opacity:0.5;">
				
					<radialGradient id="SVGID_00000091013031326927475930000006477561940395615643_" cx="207.7923" cy="195.8826" r="117.3741" gradientUnits="userSpaceOnUse">
					<stop  offset="0" style="stop-color:#F2EA30"/>
					<stop  offset="1" style="stop-color:#F37B2D"/>
				</radialGradient>
				<path style="fill:url(#SVGID_00000091013031326927475930000006477561940395615643_);" d="M288.288,172.139
					c-5.196-22.792-19.033-43.045-38.068-57.405c-0.143-0.108-0.287-0.205-0.428-0.31c-21.998-16.396-48.826-21.151-74.561-16.675
					c-16.075,2.796-31.723,9.183-45.492,18.6c-3.863,2.648-7.434,5.605-10.732,8.804c-12.318,11.939-20.652,27.385-24.584,43.884
					c-5.363,22.479-1.349,48.097,9.054,68.862c2.2,4.398,4.884,8.519,7.918,12.387c11.438,14.587,28.181,25.356,45.823,31.689
					c8.287,2.976,16.926,4.772,25.689,5.285c3.557,0.208,7.129,0.227,10.712-0.01c12.142-0.79,25.326-3.586,36.727-7.648
					c6.916-2.465,13.821-6.03,19.806-10.159c14.989-10.35,25.353-24.576,32.146-40.59c1.853-4.371,3.457-8.869,4.793-13.46
					c2.253-7.721,3.264-15.71,3.285-23.716C290.396,185.113,289.756,178.556,288.288,172.139z"/>
			</g>
			<g>
				
					<radialGradient id="SVGID_00000095296589341271113990000005670425032574529968_" cx="176.5931" cy="165.0789" r="117.374" gradientUnits="userSpaceOnUse">
					<stop  offset="0" style="stop-color:#FAAC2B"/>
					<stop  offset="0.2" style="stop-color:#F9A82B"/>
					<stop  offset="0.4184" style="stop-color:#F89A2B"/>
					<stop  offset="0.6454" style="stop-color:#F5852B"/>
					<stop  offset="0.8769" style="stop-color:#F1662A"/>
					<stop  offset="1" style="stop-color:#EF532A"/>
				</radialGradient>
				<path style="fill:url(#SVGID_00000095296589341271113990000005670425032574529968_);" d="M285.536,166.113
					c-5.197-22.792-19.033-43.048-38.069-57.409c-0.143-0.104-0.288-0.202-0.427-0.309c-21.999-16.393-48.828-21.151-74.561-16.672
					c-16.076,2.796-31.724,9.18-45.493,18.597c-3.862,2.648-7.435,5.608-10.732,8.804c-12.317,11.939-20.653,27.385-24.584,43.883
					c-5.364,22.48-1.349,48.101,9.054,68.865c2.201,4.398,4.885,8.517,7.918,12.388c11.439,14.584,28.18,25.352,45.823,31.688
					c8.286,2.974,16.925,4.77,25.689,5.286c3.556,0.204,7.129,0.223,10.712-0.011c12.143-0.793,25.326-3.589,36.728-7.651
					c6.915-2.462,13.821-6.029,19.806-10.159c14.99-10.347,25.354-24.575,32.146-40.59c1.852-4.371,3.457-8.866,4.793-13.458
					c2.253-7.723,3.264-15.713,3.285-23.715C287.643,179.083,287.003,172.526,285.536,166.113z"/>
			</g>
		</g>
		<g>
			<g>
				
					<radialGradient id="SVGID_00000087384622736611852640000010985507045634180265_" cx="251.3389" cy="341.0497" r="0.1672" gradientUnits="userSpaceOnUse">
					<stop  offset="0" style="stop-color:#F2EA30"/>
					<stop  offset="1" style="stop-color:#F37B2D"/>
				</radialGradient>
				<path style="fill:url(#SVGID_00000087384622736611852640000010985507045634180265_);" d="M251.298,340.881
					c0.032,0.282,0.064,0.425,0.08,0.376C251.392,341.22,251.359,341.084,251.298,340.881z"/>
			</g>
			<g style="opacity:0.5;">
				
					<radialGradient id="SVGID_00000139279232265742839970000015974123167580052128_" cx="225.6851" cy="158.6581" r="262.4161" gradientUnits="userSpaceOnUse">
					<stop  offset="0" style="stop-color:#F2EA30"/>
					<stop  offset="1" style="stop-color:#F37B2D"/>
				</radialGradient>
				<path style="fill:url(#SVGID_00000139279232265742839970000015974123167580052128_);" d="M356.557,217.382
					c0,0-6.71-7.053-3.44-18.753c3.269-11.699,26.667-16,26.667-16s-38.942-1.033-41.464-28.328
					c-1.943-21.044,7.538-35.642,11.996-41.245h-0.004c0,0-28.055,14.081-19.681,46.542c6.02,23.326,26.958,25.208,26.958,25.208
					s-16.745-1.109-20.417,14.683c-2.186,9.395,6.882,18.124,6.882,18.124c-4.129,7.339,1.148,16.974,1.148,16.974
					s-35.099-10.78-44.045,14.452c-6.377,17.984,8.029,35.098,8.029,35.098s-23.17-13.303-46.568-2.744
					c-23.399,10.559-17.893,36.922-17.893,36.922s-13.535-18.807-35.1-17.661c-21.563,1.145-25.463,23.167-25.463,23.167
					s-0.458-18.119-21.104-22.022c-20.646-3.898-29.135,13.077-29.135,13.077s2.753-39.685-13.533-46.795
					c-16.287-7.111-26.84,6.653-26.84,6.653s4.129-13.307-5.276-19.157c-7.972-4.958-15.142,0-15.142,0s7.111-13.42,1.607-24.088
					c-5.506-10.666-17.205-11.698-17.205-11.698s17.894-19.27,10.323-37.164c-7.57-17.893-49.895-18.237-49.895-18.237
					s31.313,3.786,37.852,23.744c6.537,19.958-17.357,38.883-17.357,38.883s18.389-8.259,29.744,6.881
					c11.355,15.141-6.166,33.058-6.166,33.058s11.1-8.514,21.192-3.008c10.093,5.505,3.671,23.13,3.671,23.13
					s13.992-21.522,31.886-9.823c17.893,11.699,9.11,58.228,9.11,58.228s5.801-15.559,26.905-18.313
					c21.105-2.753,28.446,21.334,28.446,21.334s5.963-23.398,31.197-24.775c23.826-1.301,35.783,23.764,36.854,27.151
					c-0.441-3.671-1.279-33.835,26-45.973c29.365-13.067,57.352,13.547,57.352,13.547s-25.579-26.727-13.192-50.814
					c12.389-24.087,43.701-16.173,43.701-16.173S346.577,230.802,356.557,217.382z"/>
			</g>
		</g>
		<g>
			<path style="fill:#292929;" d="M243.233,223.576c1.123,0.941,2.615,1.258,4.002,1.154l0.227-0.02l-0.043,0.226
				c-0.627,3.188-1.771,6.231-3.105,9.186c-1.377,2.933-2.989,5.777-4.926,8.4c-3.846,5.261-8.715,9.796-14.238,13.318
				c-5.529,3.538-11.725,5.952-18.07,7.484c-3.169,0.812-6.402,1.312-9.639,1.71c-3.238,0.378-6.494,0.553-9.75,0.61
				c-3.282,0.035-6.441-0.139-9.749-0.417c-1.626-0.161-3.239-0.384-4.857-0.58c-1.604-0.296-3.222-0.522-4.816-0.876
				c-3.19-0.688-6.356-1.53-9.433-2.65c-3.068-1.133-6.104-2.399-8.943-4.049c-5.697-3.237-10.828-7.506-14.883-12.636
				c-2.037-2.551-3.793-5.322-5.224-8.245c-1.419-2.927-2.597-5.965-3.245-9.172l-0.086-0.427l0.441,0.107
				c1.131,0.271,2.443,0.231,3.674,0.076c1.25-0.141,2.479-0.449,3.699-0.791c-1.189,0.436-2.396,0.845-3.652,1.086
				c-1.258,0.264-2.527,0.409-3.881,0.161l0.354-0.318c0.809,3.055,2.148,5.991,3.699,8.749c1.589,2.748,3.387,5.366,5.441,7.772
				c4.102,4.814,9.184,8.729,14.76,11.638c2.764,1.502,5.682,2.714,8.652,3.76c2.975,1.043,6.041,1.817,9.135,2.449
				c1.547,0.323,3.119,0.521,4.676,0.791l4.718,0.505c3.096,0.247,6.36,0.323,9.503,0.339c3.17-0.018,6.336-0.15,9.483-0.479
				c3.142-0.35,6.278-0.796,9.345-1.546c3.082-0.677,6.091-1.645,9.03-2.77c2.935-1.148,5.752-2.565,8.488-4.12
				c5.428-3.19,10.282-7.385,14.208-12.361c3.911-4.96,7.127-10.621,8.852-16.774l0.184,0.207
				C245.776,225.076,244.273,224.598,243.233,223.576z"/>
		</g>
		<g style="opacity:0.7;">
			
				<radialGradient id="SVGID_00000018944113654305303130000002974255545209124269_" cx="151.1322" cy="120.3196" r="44.007" gradientUnits="userSpaceOnUse">
				<stop  offset="0" style="stop-color:#F2EA30"/>
				<stop  offset="1" style="stop-color:#F37B2D"/>
			</radialGradient>
			<path style="fill:url(#SVGID_00000018944113654305303130000002974255545209124269_);" d="M97.53,149.149
				c0,0,0.704-1.919,2.361-5.089c1.667-3.153,4.201-7.621,7.888-12.546c3.724-4.877,8.364-10.43,14.212-15.479
				c2.879-2.575,6.07-4.979,9.381-7.321c3.362-2.267,6.865-4.457,10.54-6.336c1.832-0.952,3.698-1.823,5.6-2.608
				c1.868-0.854,3.798-1.537,5.702-2.242c3.814-1.378,7.658-2.471,11.415-3.35c3.757-0.871,7.444-1.478,10.956-1.822
				c1.75-0.234,3.46-0.376,5.119-0.441c1.655-0.075,3.251-0.232,4.789-0.228c3.072,0.002,5.887-0.055,8.372,0.19
				c2.485,0.188,4.651,0.272,6.421,0.543c3.535,0.473,5.556,0.743,5.556,0.743s-2.034-0.076-5.595-0.21
				c-1.771-0.134-3.936-0.051-6.404-0.048c-2.471-0.048-5.252,0.226-8.28,0.328c-1.514,0.07-3.081,0.298-4.706,0.446
				c-1.627,0.14-3.299,0.359-5.006,0.667c-3.431,0.5-6.996,1.293-10.665,2.154c-3.657,0.916-7.392,2.04-11.087,3.443
				c-1.845,0.712-3.713,1.403-5.52,2.269c-1.839,0.786-3.639,1.673-5.412,2.614c-3.602,1.771-7.043,3.852-10.355,6.01
				c-3.26,2.237-6.414,4.533-9.264,7.006c-2.866,2.446-5.574,4.9-7.998,7.376c-2.461,2.441-4.604,4.931-6.557,7.248
				c-3.827,4.699-6.787,8.829-8.639,11.861C98.456,147.332,97.53,149.149,97.53,149.149z"/>
		</g>
		<g style="opacity:0.7;">
			
				<radialGradient id="SVGID_00000106863227775710604210000013196098130130242733_" cx="72.8111" cy="84.4224" r="29.8455" gradientUnits="userSpaceOnUse">
				<stop  offset="0" style="stop-color:#F2EA30"/>
				<stop  offset="1" style="stop-color:#F37B2D"/>
			</radialGradient>
			<path style="fill:url(#SVGID_00000106863227775710604210000013196098130130242733_);" d="M43.633,110.44
				c0,0,1.475,0.476,4.109,0.976c1.317,0.25,2.925,0.489,4.774,0.668c1.854,0.155,3.941,0.204,6.213,0.195
				c1.131-0.073,2.311-0.148,3.529-0.226c1.207-0.185,2.459-0.336,3.728-0.564c1.252-0.32,2.558-0.562,3.85-0.954
				c1.268-0.477,2.615-0.791,3.9-1.35c1.266-0.6,2.617-1.064,3.863-1.791c1.226-0.753,2.547-1.377,3.746-2.226
				c1.178-0.876,2.425-1.68,3.57-2.626l3.321-3l3.043-3.353c1.005-1.143,1.718-2.363,2.591-3.527c1.566-2.433,2.92-5.01,3.897-7.621
				c0.541-1.288,0.794-2.648,1.236-3.925c0.354-1.299,0.542-2.611,0.814-3.872c0.168-1.277,0.268-2.529,0.397-3.745
				c0.016-1.22,0.03-2.397,0.043-3.53c-0.109-2.265-0.28-4.346-0.547-6.185c-0.283-1.837-0.622-3.425-0.955-4.726
				c-0.663-2.597-1.229-4.038-1.229-4.038s0.787,1.334,1.74,3.876c0.467,1.274,0.973,2.845,1.449,4.683
				c0.467,1.841,0.864,3.957,1.088,6.297c0.059,1.177,0.119,2.403,0.182,3.669c-0.057,1.269-0.08,2.588-0.176,3.938
				c-0.199,1.339-0.316,2.739-0.607,4.14c-0.355,1.382-0.635,2.828-1.15,4.223c-0.979,2.82-2.257,5.626-3.967,8.283
				c-0.922,1.274-1.782,2.696-2.789,3.863l-3.123,3.504l-3.555,3.145c-1.226,0.989-2.561,1.839-3.824,2.753
				c-2.631,1.683-5.418,3.016-8.203,4.051c-1.384,0.535-2.815,0.868-4.183,1.261c-1.386,0.334-2.775,0.505-4.104,0.755
				c-1.345,0.16-2.659,0.235-3.921,0.35c-1.267,0.002-2.492,0.009-3.668,0.011c-1.171-0.092-2.295-0.132-3.354-0.256
				c-1.055-0.167-2.051-0.328-2.991-0.476c-1.861-0.369-3.461-0.772-4.761-1.158C45.018,111.142,43.633,110.44,43.633,110.44z"/>
		</g>
		<g style="opacity:0.7;">
			
				<radialGradient id="SVGID_00000018209551678790061510000006364225142040200366_" cx="187.1592" cy="43.559" r="29.3769" gradientUnits="userSpaceOnUse">
				<stop  offset="0" style="stop-color:#F2EA30"/>
				<stop  offset="1" style="stop-color:#F37B2D"/>
			</radialGradient>
			<path style="fill:url(#SVGID_00000018209551678790061510000006364225142040200366_);" d="M149.679,29.075
				c0,0,0.742,1.303,2.222,3.454c1.45,2.165,3.746,5.105,6.751,8.356c1.51,1.622,3.246,3.271,5.173,4.896
				c0.974,0.8,2.026,1.55,3.069,2.354c1.1,0.721,2.225,1.452,3.367,2.199c1.209,0.628,2.398,1.341,3.664,1.925
				c1.303,0.5,2.564,1.155,3.92,1.575c2.666,0.905,5.563,1.562,8.324,1.806c1.472,0.059,3.024,0.304,4.424,0.209
				c1.395-0.137,2.786-0.102,4.17-0.354c1.373-0.323,2.784-0.455,4.104-0.882c1.303-0.467,2.668-0.739,3.881-1.347
				c2.482-1.069,4.818-2.301,6.888-3.718c2.089-1.387,3.941-2.903,5.54-4.422c1.613-1.502,3.017-2.981,4.209-4.336
				c1.201-1.35,2.165-2.602,2.938-3.651c1.548-2.097,2.318-3.387,2.318-3.387s-0.55,1.4-1.87,3.681
				c-0.665,1.133-1.505,2.5-2.581,3.991c-1.058,1.505-2.332,3.165-3.919,4.799c-1.55,1.667-3.367,3.363-5.461,4.954
				c-2.071,1.619-4.45,3.11-7.091,4.313c-2.637,1.199-5.52,2.119-8.541,2.632c-1.504,0.287-3.105,0.287-4.668,0.432
				c-1.571,0.102-3.001-0.118-4.512-0.167c-3.188-0.316-6.143-1.043-9.038-2.051c-1.452-0.459-2.785-1.19-4.149-1.777
				c-1.328-0.666-2.567-1.462-3.82-2.169c-1.184-0.815-2.348-1.621-3.445-2.457c-1.04-0.91-2.087-1.761-3.044-2.653
				c-1.892-1.812-3.568-3.625-5.011-5.38c-2.896-3.508-4.775-6.801-6.045-9.094C150.204,30.483,149.679,29.075,149.679,29.075z"/>
		</g>
		<g style="opacity:0.7;">
			
				<radialGradient id="SVGID_00000088114166175467358220000015694415169452155036_" cx="125.3171" cy="47.1695" r="19.1192" gradientUnits="userSpaceOnUse">
				<stop  offset="0" style="stop-color:#F2EA30"/>
				<stop  offset="1" style="stop-color:#F37B2D"/>
			</radialGradient>
			<path style="fill:url(#SVGID_00000088114166175467358220000015694415169452155036_);" d="M103.128,50.668
				c0,0,0.793,0.607,2.244,1.547c1.433,0.962,3.586,2.175,6.244,3.363c1.328,0.594,2.803,1.153,4.382,1.619
				c1.574,0.481,3.273,0.852,5.033,1.048c0.88,0.121,1.773,0.212,2.684,0.175c0.909,0.027,1.821,0.011,2.737-0.113
				c0.92-0.066,1.842-0.175,2.742-0.425c0.91-0.199,1.824-0.391,2.69-0.764l1.325-0.468c0.188-0.07,0.516-0.164,0.59-0.215
				l0.664-0.327c0.856-0.455,1.832-0.842,2.574-1.342c0.729-0.521,1.508-0.944,2.213-1.486c0.664-0.597,1.407-1.111,1.994-1.748
				c1.188-1.264,2.257-2.584,2.994-4.011c0.401-0.699,0.734-1.406,0.984-2.126c0.317-0.699,0.504-1.415,0.693-2.106
				c0.709-2.768,0.813-5.244,0.693-6.955c-0.099-1.718-0.298-2.702-0.298-2.702s0.433,0.909,0.827,2.626
				c0.357,1.71,0.777,4.262,0.326,7.337c-0.219,1.526-0.602,3.204-1.381,4.83c-0.699,1.666-1.769,3.278-3.072,4.761
				c-1.329,1.452-2.886,2.792-4.7,3.911c-0.876,0.589-1.743,0.936-2.624,1.42l-0.658,0.341c-0.357,0.188-0.52,0.208-0.791,0.32
				l-1.471,0.54c-0.971,0.395-1.998,0.602-3.023,0.807c-1.013,0.258-2.046,0.369-3.075,0.425c-1.025,0.129-2.045,0.107-3.049,0.025
				c-1.01-0.02-1.987-0.165-2.943-0.339c-1.92-0.288-3.717-0.863-5.348-1.505c-1.65-0.615-3.127-1.378-4.434-2.152
				c-2.633-1.528-4.549-3.184-5.854-4.343C103.753,51.449,103.128,50.668,103.128,50.668z"/>
		</g>
		<g style="opacity:0.7;">
			
				<radialGradient id="SVGID_00000029039882642593769790000005521128742416106662_" cx="260.6427" cy="54.6753" r="22.5595" gradientUnits="userSpaceOnUse">
				<stop  offset="0" style="stop-color:#F2EA30"/>
				<stop  offset="1" style="stop-color:#F37B2D"/>
			</radialGradient>
			<path style="fill:url(#SVGID_00000029039882642593769790000005521128742416106662_);" d="M234.316,38.881
				c0,0,0.1,1.125,0.463,3.043c0.18,0.96,0.438,2.113,0.801,3.414c0.377,1.299,0.885,2.726,1.457,4.269
				c0.629,1.519,1.391,3.124,2.369,4.708c1.002,1.567,2.166,3.14,3.551,4.581c0.693,0.723,1.395,1.454,2.23,2.06l1.202,0.97
				l1.317,0.839l1.328,0.838l1.438,0.672l1.379,0.656l1.59,0.543c2.15,0.825,4.123,1.301,6.226,1.707
				c2.096,0.376,4.188,0.629,6.225,0.699c4.074,0.137,7.926-0.229,11.156-0.938c3.229-0.705,5.909-1.485,7.729-2.199
				c1.828-0.684,2.847-1.172,2.847-1.172s-0.89,0.699-2.623,1.658c-1.74,0.922-4.28,2.24-7.565,3.213
				c-3.269,0.97-7.237,1.838-11.573,1.863c-2.158-0.003-4.406-0.105-6.653-0.506c-2.228-0.387-4.638-0.962-6.678-1.729l-1.58-0.567
				l-1.646-0.791l-1.576-0.771l-1.467-0.949l-1.443-0.962l-1.293-1.132c-0.888-0.712-1.635-1.554-2.361-2.381
				c-1.483-1.63-2.575-3.469-3.505-5.227c-0.901-1.78-1.56-3.538-2.081-5.175c-1.011-3.297-1.215-6.164-1.33-8.131
				C234.171,40.006,234.316,38.881,234.316,38.881z"/>
		</g>
		<g style="opacity:0.7;">
			
				<radialGradient id="SVGID_00000008115460504959936770000013747753060840458388_" cx="315.8061" cy="94.9973" r="25.0981" gradientUnits="userSpaceOnUse">
				<stop  offset="0" style="stop-color:#F2EA30"/>
				<stop  offset="1" style="stop-color:#F37B2D"/>
			</radialGradient>
			<path style="fill:url(#SVGID_00000008115460504959936770000013747753060840458388_);" d="M293.587,71.485
				c0,0-0.336,1.274-0.744,3.524c-0.436,2.243-0.834,5.493-0.944,9.36c-0.115,3.86,0.288,8.407,1.837,12.853
				c0.749,2.231,1.896,4.371,3.324,6.334c0.721,1,1.509,1.855,2.443,2.817c0.896,0.877,1.777,1.68,2.785,2.457
				c3.926,3.135,8.651,5.164,13.268,6.35c4.635,1.159,9.152,1.634,13.035,1.641c3.885-0.003,7.148-0.183,9.417-0.477
				c2.274-0.263,3.569-0.497,3.569-0.497s-1.23,0.473-3.473,1.026c-2.242,0.516-5.484,1.263-9.465,1.505
				c-3.966,0.237-8.69,0.253-13.639-0.828c-4.94-1.019-10.1-3.172-14.411-6.564c-1.061-0.833-2.108-1.812-3.061-2.774
				c-0.874-0.922-1.842-1.992-2.613-3.102c-1.578-2.229-2.721-4.688-3.465-7.141c-1.49-4.936-1.441-9.734-1.078-13.694
				c0.379-3.983,1.303-7.188,1.959-9.393C293.028,72.678,293.587,71.485,293.587,71.485z"/>
		</g>
	</g>
	<g>
		<g>
			
				<radialGradient id="SVGID_00000027562416375959305880000000389192153970863007_" cx="1608.7111" cy="93.4607" r="108.5078" gradientTransform="matrix(-1.0131 -0.0744 -0.1087 0.6811 1854.8254 247.6956)" gradientUnits="userSpaceOnUse">
				<stop  offset="0.0151" style="stop-color:#B4BAB5"/>
				<stop  offset="0.1873" style="stop-color:#000000"/>
				<stop  offset="0.451" style="stop-color:#B4BAB5"/>
				<stop  offset="0.626" style="stop-color:#F3F5F0"/>
				<stop  offset="0.8625" style="stop-color:#000000"/>
			</radialGradient>
			<path style="fill:url(#SVGID_00000027562416375959305880000000389192153970863007_);" d="M76.94,144.177
				c0,0-0.611,1.186,6.254,3.208c0.937,0.275,3.354,0.773,6.842,1.43c0.105,1.766,0.291,3.532,0.543,5.292
				c-3.54-0.555-5.945-0.964-7.619-1.294c-5.737-1.132-7.155-1.52-7.961-4.42C74.193,145.49,76.94,144.177,76.94,144.177z"/>
			
				<linearGradient id="SVGID_00000181775877069602339720000003547622813964529315_" gradientUnits="userSpaceOnUse" x1="77.2087" y1="148.4852" x2="81.4237" y2="148.4852">
				<stop  offset="0" style="stop-color:#000000"/>
				<stop  offset="0.3124" style="stop-color:#F3F5F0"/>
				<stop  offset="0.4111" style="stop-color:#C0C1BD"/>
				<stop  offset="0.5775" style="stop-color:#6E6F6D"/>
				<stop  offset="0.7142" style="stop-color:#333332"/>
				<stop  offset="0.8143" style="stop-color:#0E0E0E"/>
				<stop  offset="0.8671" style="stop-color:#000000"/>
			</linearGradient>
			<path style="opacity:0.3;fill:url(#SVGID_00000181775877069602339720000003547622813964529315_);" d="M82.036,147.027
				c-3.27-1.047-4.463-1.839-4.885-2.318c-0.546,1.814-0.937,3.678-1.28,5.555c0.778,0.976,2.044,1.463,4.417,1.999
				C80.868,150.519,81.486,148.785,82.036,147.027z"/>
			
				<radialGradient id="SVGID_00000070105260470812098100000010034896859500757690_" cx="1769.1061" cy="14.9124" r="34.1548" gradientTransform="matrix(-1.0131 -0.0744 -0.1087 0.6811 1854.8254 247.6956)" gradientUnits="userSpaceOnUse">
				<stop  offset="0.0151" style="stop-color:#B4BAB5"/>
				<stop  offset="0.1873" style="stop-color:#000000"/>
				<stop  offset="0.451" style="stop-color:#B4BAB5"/>
				<stop  offset="0.626" style="stop-color:#F3F5F0"/>
				<stop  offset="0.8625" style="stop-color:#000000"/>
			</radialGradient>
			<path style="fill:url(#SVGID_00000070105260470812098100000010034896859500757690_);" d="M89.08,133.943
				c0,0-3.487,2.933-3.478,10.083c-8.539-0.531-10.564,1.35-9.322,6.176c-2.525-3.085-1.916-6.906-1.366-10.344
				C75.462,136.422,76.345,133.587,89.08,133.943z"/>
			<g>
				
					<radialGradient id="SVGID_00000150815926326008233390000000135988349319788700_" cx="1750.2733" cy="41.2188" r="5.3014" gradientTransform="matrix(-1.0131 -0.0744 -0.1087 0.6811 1854.8254 247.6956)" gradientUnits="userSpaceOnUse">
					<stop  offset="0.0151" style="stop-color:#B4BAB5"/>
					<stop  offset="0.1873" style="stop-color:#000000"/>
					<stop  offset="0.451" style="stop-color:#B4BAB5"/>
					<stop  offset="0.626" style="stop-color:#F3F5F0"/>
					<stop  offset="0.8625" style="stop-color:#000000"/>
				</radialGradient>
				<path style="fill:url(#SVGID_00000150815926326008233390000000135988349319788700_);" d="M79.281,144.087
					c0.402-0.006,0.815-0.01,1.232-0.011c-4.229,0.503-5.175,2.465-4.233,6.126c-2.332-2.848-1.991-6.322-1.492-9.543
					C74.667,142.739,75.521,144.143,79.281,144.087z"/>
			</g>
			
				<radialGradient id="SVGID_00000069394280754431419400000014327985129695070383_" cx="-1207.2969" cy="25.2602" r="16.2818" gradientTransform="matrix(1.0131 0.0744 -0.1087 0.6811 1294.9093 206.1164)" gradientUnits="userSpaceOnUse">
				<stop  offset="0.0151" style="stop-color:#B4BAB5"/>
				<stop  offset="0.1873" style="stop-color:#000000"/>
				<stop  offset="0.451" style="stop-color:#B4BAB5"/>
				<stop  offset="0.626" style="stop-color:#F3F5F0"/>
				<stop  offset="0.8625" style="stop-color:#000000"/>
			</radialGradient>
			<path style="fill:url(#SVGID_00000069394280754431419400000014327985129695070383_);" d="M84.567,134.232
				c0,0-3.439,0.418-5.934,1.16c-2.491,0.742-2.907,2.56-3.164,5.733c-0.191,2.76,0.257-3.173,2.691-4.339
				C80.597,135.622,84.567,134.232,84.567,134.232z"/>
		</g>
		<g>
			
				<radialGradient id="SVGID_00000029743841817751073300000005979937079029998765_" cx="-363.9804" cy="-122.0267" r="108.5051" gradientTransform="matrix(1.0131 -0.0744 0.1087 0.6811 544.9468 247.6956)" gradientUnits="userSpaceOnUse">
				<stop  offset="0.0151" style="stop-color:#B4BAB5"/>
				<stop  offset="0.1873" style="stop-color:#000000"/>
				<stop  offset="0.451" style="stop-color:#B4BAB5"/>
				<stop  offset="0.626" style="stop-color:#F3F5F0"/>
				<stop  offset="0.8625" style="stop-color:#000000"/>
			</radialGradient>
			<path style="fill:url(#SVGID_00000029743841817751073300000005979937079029998765_);" d="M300.871,144.177
				c0,0,0.61,1.186-6.255,3.208c-0.935,0.275-3.353,0.773-6.84,1.43c-0.107,1.766-0.293,3.532-0.544,5.292
				c3.539-0.555,5.945-0.964,7.618-1.294c5.738-1.132,7.156-1.52,7.961-4.42C303.618,145.49,300.871,144.177,300.871,144.177z"/>
			
				<linearGradient id="SVGID_00000070815458325011155390000009279344179902505638_" gradientUnits="userSpaceOnUse" x1="2053.4163" y1="148.4852" x2="2057.6306" y2="148.4852" gradientTransform="matrix(-1 0 0 1 2354.0195 0)">
				<stop  offset="0" style="stop-color:#000000"/>
				<stop  offset="0.3124" style="stop-color:#F3F5F0"/>
				<stop  offset="0.4111" style="stop-color:#C0C1BD"/>
				<stop  offset="0.5775" style="stop-color:#6E6F6D"/>
				<stop  offset="0.7142" style="stop-color:#333332"/>
				<stop  offset="0.8143" style="stop-color:#0E0E0E"/>
				<stop  offset="0.8671" style="stop-color:#000000"/>
			</linearGradient>
			<path style="opacity:0.3;fill:url(#SVGID_00000070815458325011155390000009279344179902505638_);" d="M295.776,147.027
				c3.268-1.047,4.462-1.839,4.883-2.318c0.547,1.814,0.938,3.678,1.281,5.555c-0.777,0.976-2.045,1.463-4.418,1.999
				C296.942,150.519,296.325,148.785,295.776,147.027z"/>
			
				<radialGradient id="SVGID_00000036929686940576929000000014425880784181003665_" cx="-203.5867" cy="-200.575" r="34.1553" gradientTransform="matrix(1.0131 -0.0744 0.1087 0.6811 544.9468 247.6956)" gradientUnits="userSpaceOnUse">
				<stop  offset="0.0151" style="stop-color:#B4BAB5"/>
				<stop  offset="0.1873" style="stop-color:#000000"/>
				<stop  offset="0.451" style="stop-color:#B4BAB5"/>
				<stop  offset="0.626" style="stop-color:#F3F5F0"/>
				<stop  offset="0.8625" style="stop-color:#000000"/>
			</radialGradient>
			<path style="fill:url(#SVGID_00000036929686940576929000000014425880784181003665_);" d="M288.732,133.943
				c0,0,3.487,2.933,3.478,10.083c8.54-0.531,10.564,1.35,9.322,6.176c2.526-3.085,1.917-6.906,1.367-10.344
				C302.35,136.422,301.467,133.587,288.732,133.943z"/>
			<g>
				
					<radialGradient id="SVGID_00000174602895089982128380000006124169770332091797_" cx="-222.4221" cy="-174.2688" r="5.3013" gradientTransform="matrix(1.0131 -0.0744 0.1087 0.6811 544.9468 247.6956)" gradientUnits="userSpaceOnUse">
					<stop  offset="0.0151" style="stop-color:#B4BAB5"/>
					<stop  offset="0.1873" style="stop-color:#000000"/>
					<stop  offset="0.451" style="stop-color:#B4BAB5"/>
					<stop  offset="0.626" style="stop-color:#F3F5F0"/>
					<stop  offset="0.8625" style="stop-color:#000000"/>
				</radialGradient>
				<path style="fill:url(#SVGID_00000174602895089982128380000006124169770332091797_);" d="M298.53,144.087
					c-0.401-0.006-0.814-0.01-1.232-0.011c4.23,0.503,5.176,2.465,4.233,6.126c2.333-2.848,1.991-6.322,1.491-9.543
					C303.145,142.739,302.292,144.143,298.53,144.087z"/>
			</g>
			
				<radialGradient id="SVGID_00000132777805782876338490000016216249480497154178_" cx="765.3946" cy="-190.2273" r="16.2843" gradientTransform="matrix(-1.0131 0.0744 0.1087 0.6811 1104.8622 206.1164)" gradientUnits="userSpaceOnUse">
				<stop  offset="0.0151" style="stop-color:#B4BAB5"/>
				<stop  offset="0.1873" style="stop-color:#000000"/>
				<stop  offset="0.451" style="stop-color:#B4BAB5"/>
				<stop  offset="0.626" style="stop-color:#F3F5F0"/>
				<stop  offset="0.8625" style="stop-color:#000000"/>
			</radialGradient>
			<path style="fill:url(#SVGID_00000132777805782876338490000016216249480497154178_);" d="M293.243,134.232
				c0,0,3.441,0.418,5.936,1.16c2.49,0.742,2.907,2.56,3.164,5.733c0.19,2.76-0.257-3.173-2.692-4.339
				C297.215,135.622,293.243,134.232,293.243,134.232z"/>
		</g>
		<g>
			
				<radialGradient id="SVGID_00000026159850556942345320000012456350001186677411_" cx="184.3624" cy="139.4735" r="8.5687" gradientTransform="matrix(1.0189 0 0 1.0305 0.248 -8.2695)" gradientUnits="userSpaceOnUse">
				<stop  offset="0.0384" style="stop-color:#3B5A2A"/>
				<stop  offset="0.4196" style="stop-color:#313C26"/>
				<stop  offset="0.7661" style="stop-color:#2A2824"/>
				<stop  offset="1" style="stop-color:#272123"/>
			</radialGradient>
			<path style="fill:url(#SVGID_00000026159850556942345320000012456350001186677411_);" d="M197.982,138.967
				c-9.958-8.393-19.425-0.92-19.822-0.599l-1.914-2.421c0.116-0.095,11.841-9.356,23.699,0.639L197.982,138.967z"/>
			
				<radialGradient id="SVGID_00000071545326155063870790000001411106116136528831_" cx="181.8225" cy="-60.6489" r="275.2177" gradientTransform="matrix(1.0189 0 0 1.0305 0.248 -8.2695)" gradientUnits="userSpaceOnUse">
				<stop  offset="0.553" style="stop-color:#F8ED58"/>
				<stop  offset="0.5888" style="stop-color:#F1EA57"/>
				<stop  offset="0.6394" style="stop-color:#DFE255"/>
				<stop  offset="0.6987" style="stop-color:#C1D552"/>
				<stop  offset="0.7647" style="stop-color:#97C24D"/>
				<stop  offset="0.8354" style="stop-color:#61AB47"/>
				<stop  offset="0.849" style="stop-color:#56A646"/>
				<stop  offset="0.8774" style="stop-color:#4FA04B"/>
				<stop  offset="0.9195" style="stop-color:#3B8E59"/>
				<stop  offset="0.9698" style="stop-color:#1A716F"/>
				<stop  offset="1" style="stop-color:#035C7F"/>
			</radialGradient>
			<path style="fill:url(#SVGID_00000071545326155063870790000001411106116136528831_);" d="M135.724,115.873
				c-26.564-0.349-44.396,3.085-54.76,38.023c-11.034,37.196,13.895,50.834,26.971,52.074c13.077,1.24,50.264-8.68,66.61-44.223
				C190.892,126.206,167.189,116.285,135.724,115.873z"/>
			<defs>
				<filter id="Adobe_OpacityMaskFilter" filterUnits="userSpaceOnUse" x="84.276" y="118.33" width="92.217" height="81.85">
					<feColorMatrix  type="matrix" values="1 0 0 0 0  0 1 0 0 0  0 0 1 0 0  0 0 0 1 0"/>
				</filter>
			</defs>
			
				<mask maskUnits="userSpaceOnUse" x="84.276" y="118.33" width="92.217" height="81.85" id="SVGID_00000114047520211745060180000017951667341139168176_">
				<g style="filter:url(#Adobe_OpacityMaskFilter);">
					<defs>
						
							<filter id="Adobe_OpacityMaskFilter_00000162331255890239089240000014987554729118441909_" filterUnits="userSpaceOnUse" x="84.276" y="118.33" width="92.217" height="81.85">
							<feFlood  style="flood-color:white;flood-opacity:1" result="back"/>
							<feBlend  in="SourceGraphic" in2="back" mode="normal"/>
						</filter>
					</defs>
					
						<mask maskUnits="userSpaceOnUse" x="84.276" y="118.33" width="92.217" height="81.85" id="SVGID_00000114047520211745060180000017951667341139168176_">
						<g style="filter:url(#Adobe_OpacityMaskFilter_00000162331255890239089240000014987554729118441909_);">
						</g>
					</mask>
					
						<radialGradient id="SVGID_00000129888406024078896150000005746261570677698439_" cx="134.5664" cy="124.2772" r="68.4439" gradientTransform="matrix(1.0189 0 0 1.0305 0.248 -8.2695)" gradientUnits="userSpaceOnUse">
						<stop  offset="0.0524" style="stop-color:#FFFFFF"/>
						<stop  offset="0.2719" style="stop-color:#FFFFFF"/>
						<stop  offset="0.5423" style="stop-color:#FFFFFF"/>
						<stop  offset="0.6164" style="stop-color:#CECECE"/>
						<stop  offset="0.7577" style="stop-color:#777777"/>
						<stop  offset="0.8731" style="stop-color:#373737"/>
						<stop  offset="0.9567" style="stop-color:#0F0F0F"/>
						<stop  offset="1" style="stop-color:#000000"/>
					</radialGradient>
					
						<path style="mask:url(#SVGID_00000114047520211745060180000017951667341139168176_);fill:url(#SVGID_00000129888406024078896150000005746261570677698439_);" d="
						M136.446,118.35c-24.1-0.317-40.277,2.8-49.68,34.496c-10.01,33.746,12.605,46.119,24.469,47.243
						c11.863,1.127,45.602-7.872,60.432-40.12C186.497,127.724,164.993,118.724,136.446,118.35z"/>
				</g>
			</mask>
			
				<radialGradient id="SVGID_00000138548744454754931090000010913469748529024697_" cx="134.5664" cy="124.2772" r="68.4439" gradientTransform="matrix(1.0189 0 0 1.0305 0.248 -8.2695)" gradientUnits="userSpaceOnUse">
				<stop  offset="0.0524" style="stop-color:#F4F5F5"/>
				<stop  offset="0.2719" style="stop-color:#FFD752"/>
				<stop  offset="0.3111" style="stop-color:#E3CF50"/>
				<stop  offset="0.4228" style="stop-color:#97B94B"/>
				<stop  offset="0.5026" style="stop-color:#68AB47"/>
				<stop  offset="0.5423" style="stop-color:#56A646"/>
				<stop  offset="0.5871" style="stop-color:#54A548"/>
				<stop  offset="1" style="stop-color:#46A157"/>
			</radialGradient>
			<path style="fill:url(#SVGID_00000138548744454754931090000010913469748529024697_);" d="M136.446,118.35
				c-24.1-0.317-40.277,2.8-49.68,34.496c-10.01,33.746,12.605,46.119,24.469,47.243c11.863,1.127,45.602-7.872,60.432-40.12
				C186.497,127.724,164.993,118.724,136.446,118.35z"/>
			
				<radialGradient id="SVGID_00000084531368084585021880000002263320743955479479_" cx="181.8227" cy="-60.6489" r="275.2191" gradientTransform="matrix(1.0189 0 0 1.0305 0.248 -8.2695)" gradientUnits="userSpaceOnUse">
				<stop  offset="0.553" style="stop-color:#FFD752"/>
				<stop  offset="0.5879" style="stop-color:#F8D552"/>
				<stop  offset="0.637" style="stop-color:#E6D050"/>
				<stop  offset="0.6947" style="stop-color:#C8C74E"/>
				<stop  offset="0.7589" style="stop-color:#9EBB4B"/>
				<stop  offset="0.8276" style="stop-color:#68AB47"/>
				<stop  offset="0.849" style="stop-color:#56A646"/>
				<stop  offset="0.933" style="stop-color:#4FA44D"/>
				<stop  offset="1" style="stop-color:#46A157"/>
			</radialGradient>
			<path style="fill:url(#SVGID_00000084531368084585021880000002263320743955479479_);" d="M241.278,115.873
				c26.564-0.349,44.396,3.085,54.76,38.023c11.034,37.196-13.895,50.834-26.972,52.074c-13.076,1.24-50.264-8.68-66.61-44.223
				C186.11,126.206,209.812,116.285,241.278,115.873z"/>
			<defs>
				
					<filter id="Adobe_OpacityMaskFilter_00000034786377956354356550000004980005980589758907_" filterUnits="userSpaceOnUse" x="78.219" y="120.073" width="101.644" height="85.999">
					<feColorMatrix  type="matrix" values="1 0 0 0 0  0 1 0 0 0  0 0 1 0 0  0 0 0 1 0"/>
				</filter>
			</defs>
			
				<mask maskUnits="userSpaceOnUse" x="78.219" y="120.073" width="101.644" height="85.999" id="SVGID_00000134952010281898826150000013403186910573386931_">
				<g style="filter:url(#Adobe_OpacityMaskFilter_00000034786377956354356550000004980005980589758907_);">
					<defs>
						
							<filter id="Adobe_OpacityMaskFilter_00000183942466075677839020000016826082525981801887_" filterUnits="userSpaceOnUse" x="78.219" y="120.073" width="101.644" height="85.999">
							<feFlood  style="flood-color:white;flood-opacity:1" result="back"/>
							<feBlend  in="SourceGraphic" in2="back" mode="normal"/>
						</filter>
					</defs>
					
						<mask maskUnits="userSpaceOnUse" x="78.219" y="120.073" width="101.644" height="85.999" id="SVGID_00000134952010281898826150000013403186910573386931_">
						<g style="filter:url(#Adobe_OpacityMaskFilter_00000183942466075677839020000016826082525981801887_);">
						</g>
					</mask>
					
						<radialGradient id="SVGID_00000078749837994862563750000017931292424356743586_" cx="118.925" cy="139.6177" r="68.1964" gradientTransform="matrix(1.0189 0 0 1.0305 0.248 -8.2695)" gradientUnits="userSpaceOnUse">
						<stop  offset="0.3694" style="stop-color:#000000"/>
						<stop  offset="0.4988" style="stop-color:#5D5D5D"/>
						<stop  offset="0.6282" style="stop-color:#B4B4B4"/>
						<stop  offset="0.7193" style="stop-color:#EAEAEA"/>
						<stop  offset="0.7634" style="stop-color:#FFFFFF"/>
						<stop  offset="1" style="stop-color:#FFFFFF"/>
					</radialGradient>
					
						<path style="mask:url(#SVGID_00000134952010281898826150000013403186910573386931_);fill:url(#SVGID_00000078749837994862563750000017931292424356743586_);" d="
						M174.097,126.627c0.189,0.43,0.371,0.866,0.537,1.309c5.064,13.595,0.299,29.004-8.065,40.118
						c-4.911,6.526-11.176,11.797-17.743,16.537c-6.958,5.022-14.479,9.512-22.642,12.208c-11.119,3.669-25.865,4.686-34.708-4.583
						c-6.245-6.548-8.088-16.108-7.845-24.921c0.283-10.243,3.029-20.529,7.631-29.645c3.344-6.626,7.92-13.331,14.137-17.576
						c-10.598,4.712-18.671,14.396-24.434,33.824c-11.034,37.196,13.895,50.834,26.971,52.074c13.077,1.24,50.264-8.68,66.61-44.223
						C182.344,144.791,181.023,133.669,174.097,126.627z"/>
				</g>
			</mask>
			
				<radialGradient id="SVGID_00000038376552439833692890000008581902022921423283_" cx="118.925" cy="139.6177" r="68.1964" gradientTransform="matrix(1.0189 0 0 1.0305 0.248 -8.2695)" gradientUnits="userSpaceOnUse">
				<stop  offset="0.3694" style="stop-color:#FFD752"/>
				<stop  offset="0.3847" style="stop-color:#F8D551"/>
				<stop  offset="0.5699" style="stop-color:#A1BC4B"/>
				<stop  offset="0.7003" style="stop-color:#6BAC47"/>
				<stop  offset="0.7634" style="stop-color:#56A646"/>
				<stop  offset="0.8951" style="stop-color:#4FA44D"/>
				<stop  offset="1" style="stop-color:#46A157"/>
			</radialGradient>
			<path style="opacity:0.4;fill:url(#SVGID_00000038376552439833692890000008581902022921423283_);" d="M174.097,126.627
				c0.189,0.43,0.371,0.866,0.537,1.309c5.064,13.595,0.299,29.004-8.065,40.118c-4.911,6.526-11.176,11.797-17.743,16.537
				c-6.958,5.022-14.479,9.512-22.642,12.208c-11.119,3.669-25.865,4.686-34.708-4.583c-6.245-6.548-8.088-16.108-7.845-24.921
				c0.283-10.243,3.029-20.529,7.631-29.645c3.344-6.626,7.92-13.331,14.137-17.576c-10.598,4.712-18.671,14.396-24.434,33.824
				c-11.034,37.196,13.895,50.834,26.971,52.074c13.077,1.24,50.264-8.68,66.61-44.223
				C182.344,144.791,181.023,133.669,174.097,126.627z"/>
			<defs>
				
					<filter id="Adobe_OpacityMaskFilter_00000117634933625269650630000000408827866289332893_" filterUnits="userSpaceOnUse" x="197.137" y="115.851" width="101.646" height="90.221">
					<feFlood  style="flood-color:white;flood-opacity:1" result="back"/>
					<feBlend  in="SourceGraphic" in2="back" mode="normal"/>
				</filter>
			</defs>
			
				<mask maskUnits="userSpaceOnUse" x="197.137" y="115.851" width="101.646" height="90.221" id="SVGID_00000017480942173114818510000007863170352633156001_">
				<g style="filter:url(#Adobe_OpacityMaskFilter_00000117634933625269650630000000408827866289332893_);">
					<defs>
						
							<filter id="Adobe_OpacityMaskFilter_00000147209075119464574060000016133216288788520587_" filterUnits="userSpaceOnUse" x="197.137" y="115.851" width="101.646" height="90.221">
							<feFlood  style="flood-color:white;flood-opacity:1" result="back"/>
							<feBlend  in="SourceGraphic" in2="back" mode="normal"/>
						</filter>
					</defs>
					
						<mask maskUnits="userSpaceOnUse" x="197.137" y="115.851" width="101.646" height="90.221" id="SVGID_00000017480942173114818510000007863170352633156001_">
						<g style="filter:url(#Adobe_OpacityMaskFilter_00000147209075119464574060000016133216288788520587_);">
						</g>
					</mask>
					
						<radialGradient id="SVGID_00000052802000227461545700000014279584540279132041_" cx="181.8227" cy="-60.6489" r="275.2191" gradientTransform="matrix(1.0189 0 0 1.0305 0.248 -8.2695)" gradientUnits="userSpaceOnUse">
						<stop  offset="0.553" style="stop-color:#000000"/>
						<stop  offset="0.5796" style="stop-color:#070707"/>
						<stop  offset="0.6171" style="stop-color:#191919"/>
						<stop  offset="0.6612" style="stop-color:#373737"/>
						<stop  offset="0.7102" style="stop-color:#626262"/>
						<stop  offset="0.7633" style="stop-color:#989898"/>
						<stop  offset="0.819" style="stop-color:#D9D9D9"/>
						<stop  offset="0.849" style="stop-color:#FFFFFF"/>
						<stop  offset="1" style="stop-color:#FFFFFF"/>
					</radialGradient>
					
						<path style="mask:url(#SVGID_00000017480942173114818510000007863170352633156001_);fill:url(#SVGID_00000052802000227461545700000014279584540279132041_);" d="
						M241.278,115.873c26.564-0.349,44.396,3.085,54.76,38.023c11.034,37.196-13.895,50.834-26.972,52.074
						c-13.076,1.24-50.264-8.68-66.61-44.223C186.11,126.206,209.812,116.285,241.278,115.873z"/>
				</g>
			</mask>
			
				<radialGradient id="SVGID_00000173149974079699719730000002215762219571668125_" cx="181.8227" cy="-60.6489" r="275.2191" gradientTransform="matrix(1.0189 0 0 1.0305 0.248 -8.2695)" gradientUnits="userSpaceOnUse">
				<stop  offset="0.553" style="stop-color:#F8ED58"/>
				<stop  offset="0.5888" style="stop-color:#F1EA57"/>
				<stop  offset="0.6394" style="stop-color:#DFE255"/>
				<stop  offset="0.6987" style="stop-color:#C1D552"/>
				<stop  offset="0.7647" style="stop-color:#97C24D"/>
				<stop  offset="0.8354" style="stop-color:#61AB47"/>
				<stop  offset="0.849" style="stop-color:#56A646"/>
				<stop  offset="0.8774" style="stop-color:#4FA04B"/>
				<stop  offset="0.9195" style="stop-color:#3B8E59"/>
				<stop  offset="0.9698" style="stop-color:#1A716F"/>
				<stop  offset="1" style="stop-color:#035C7F"/>
			</radialGradient>
			<path style="fill:url(#SVGID_00000173149974079699719730000002215762219571668125_);" d="M241.278,115.873
				c26.564-0.349,44.396,3.085,54.76,38.023c11.034,37.196-13.895,50.834-26.972,52.074c-13.076,1.24-50.264-8.68-66.61-44.223
				C186.11,126.206,209.812,116.285,241.278,115.873z"/>
			<defs>
				
					<filter id="Adobe_OpacityMaskFilter_00000080199343212440781830000010601374015011256716_" filterUnits="userSpaceOnUse" x="202.925" y="118.641" width="89.728" height="75.652">
					<feColorMatrix  type="matrix" values="1 0 0 0 0  0 1 0 0 0  0 0 1 0 0  0 0 0 1 0"/>
				</filter>
			</defs>
			
				<mask maskUnits="userSpaceOnUse" x="202.925" y="118.641" width="89.728" height="75.652" id="SVGID_00000109742841831988212930000000996580665202549660_">
				<g style="filter:url(#Adobe_OpacityMaskFilter_00000080199343212440781830000010601374015011256716_);">
					<defs>
						
							<filter id="Adobe_OpacityMaskFilter_00000180360545670502089080000013682936488356324737_" filterUnits="userSpaceOnUse" x="202.925" y="118.641" width="89.728" height="75.652">
							<feFlood  style="flood-color:white;flood-opacity:1" result="back"/>
							<feBlend  in="SourceGraphic" in2="back" mode="normal"/>
						</filter>
					</defs>
					
						<mask maskUnits="userSpaceOnUse" x="202.925" y="118.641" width="89.728" height="75.652" id="SVGID_00000109742841831988212930000000996580665202549660_">
						<g style="filter:url(#Adobe_OpacityMaskFilter_00000180360545670502089080000013682936488356324737_);">
						</g>
					</mask>
					
						<radialGradient id="SVGID_00000015331909085187450790000005264620668081986239_" cx="290.6174" cy="126.6841" r="70.398" gradientTransform="matrix(1.0726 0 0 1.0305 -64.4563 -8.2695)" gradientUnits="userSpaceOnUse">
						<stop  offset="0.0524" style="stop-color:#FFFFFF"/>
						<stop  offset="0.2719" style="stop-color:#FFFFFF"/>
						<stop  offset="0.5423" style="stop-color:#FFFFFF"/>
						<stop  offset="0.6164" style="stop-color:#CECECE"/>
						<stop  offset="0.7577" style="stop-color:#777777"/>
						<stop  offset="0.8731" style="stop-color:#373737"/>
						<stop  offset="0.9567" style="stop-color:#0F0F0F"/>
						<stop  offset="1" style="stop-color:#000000"/>
					</radialGradient>
					
						<path style="mask:url(#SVGID_00000109742841831988212930000000996580665202549660_);fill:url(#SVGID_00000015331909085187450790000005264620668081986239_);" d="
						M241.892,118.659c23.448-0.292,39.189,2.587,48.339,31.882c9.739,31.19-12.265,42.629-23.81,43.666
						c-11.544,1.04-44.37-7.279-58.8-37.081C193.191,127.323,214.113,119.005,241.892,118.659z"/>
				</g>
			</mask>
			
				<radialGradient id="SVGID_00000114033969996997612960000006013218541570544061_" cx="290.6174" cy="126.6841" r="70.398" gradientTransform="matrix(1.0726 0 0 1.0305 -64.4563 -8.2695)" gradientUnits="userSpaceOnUse">
				<stop  offset="0.0524" style="stop-color:#F4F5F5"/>
				<stop  offset="0.2719" style="stop-color:#FFD752"/>
				<stop  offset="0.3111" style="stop-color:#E3CF50"/>
				<stop  offset="0.4228" style="stop-color:#97B94B"/>
				<stop  offset="0.5026" style="stop-color:#68AB47"/>
				<stop  offset="0.5423" style="stop-color:#56A646"/>
				<stop  offset="0.5871" style="stop-color:#54A548"/>
				<stop  offset="1" style="stop-color:#46A157"/>
			</radialGradient>
			<path style="fill:url(#SVGID_00000114033969996997612960000006013218541570544061_);" d="M241.892,118.659
				c23.448-0.292,39.189,2.587,48.339,31.882c9.739,31.19-12.265,42.629-23.81,43.666c-11.544,1.04-44.37-7.279-58.8-37.081
				C193.191,127.323,214.113,119.005,241.892,118.659z"/>
			<defs>
				
					<filter id="Adobe_OpacityMaskFilter_00000004534267730026118050000012931528740487263160_" filterUnits="userSpaceOnUse" x="197.139" y="126.691" width="101.644" height="79.381">
					<feColorMatrix  type="matrix" values="1 0 0 0 0  0 1 0 0 0  0 0 1 0 0  0 0 0 1 0"/>
				</filter>
			</defs>
			
				<mask maskUnits="userSpaceOnUse" x="197.139" y="126.691" width="101.644" height="79.381" id="SVGID_00000024711215182145546760000012579305313870516626_">
				<g style="filter:url(#Adobe_OpacityMaskFilter_00000004534267730026118050000012931528740487263160_);">
					<defs>
						
							<filter id="Adobe_OpacityMaskFilter_00000010993060844602745420000009367839466962610360_" filterUnits="userSpaceOnUse" x="197.139" y="126.691" width="101.644" height="79.381">
							<feFlood  style="flood-color:white;flood-opacity:1" result="back"/>
							<feBlend  in="SourceGraphic" in2="back" mode="normal"/>
						</filter>
					</defs>
					
						<mask maskUnits="userSpaceOnUse" x="197.139" y="126.691" width="101.644" height="79.381" id="SVGID_00000024711215182145546760000012579305313870516626_">
						<g style="filter:url(#Adobe_OpacityMaskFilter_00000010993060844602745420000009367839466962610360_);">
						</g>
					</mask>
					
						<radialGradient id="SVGID_00000060713634896401521720000005103156421614273709_" cx="181.8233" cy="-60.6498" r="275.2197" gradientTransform="matrix(1.0189 0 0 1.0305 0.248 -8.2695)" gradientUnits="userSpaceOnUse">
						<stop  offset="0.3694" style="stop-color:#000000"/>
						<stop  offset="0.4988" style="stop-color:#5D5D5D"/>
						<stop  offset="0.6282" style="stop-color:#B4B4B4"/>
						<stop  offset="0.7193" style="stop-color:#EAEAEA"/>
						<stop  offset="0.7634" style="stop-color:#FFFFFF"/>
						<stop  offset="1" style="stop-color:#FFFFFF"/>
					</radialGradient>
					
						<path style="mask:url(#SVGID_00000024711215182145546760000012579305313870516626_);fill:url(#SVGID_00000060713634896401521720000005103156421614273709_);" d="
						M296.038,153.896c-2.636-8.886-5.755-15.729-9.378-20.996c7.803,18.044,12.785,39.272,1.288,55.758
						c-18.561,26.613-55.735,5.993-71.629-13.149c-7.877-9.486-14.659-20.494-15.609-33.099c-0.387-5.136,0.045-10.959,2.133-15.719
						c-6.871,7.047-8.162,18.152-0.387,35.057c16.347,35.543,53.534,45.463,66.61,44.223
						C282.144,204.73,307.072,191.093,296.038,153.896z"/>
				</g>
			</mask>
			
				<radialGradient id="SVGID_00000121261053817696262040000007407868560665645701_" cx="181.8233" cy="-60.6498" r="275.2197" gradientTransform="matrix(1.0189 0 0 1.0305 0.248 -8.2695)" gradientUnits="userSpaceOnUse">
				<stop  offset="0.3694" style="stop-color:#FFD752"/>
				<stop  offset="0.3847" style="stop-color:#F8D551"/>
				<stop  offset="0.5699" style="stop-color:#A1BC4B"/>
				<stop  offset="0.7003" style="stop-color:#6BAC47"/>
				<stop  offset="0.7634" style="stop-color:#56A646"/>
				<stop  offset="0.8951" style="stop-color:#4FA44D"/>
				<stop  offset="1" style="stop-color:#46A157"/>
			</radialGradient>
			<path style="opacity:0.4;fill:url(#SVGID_00000121261053817696262040000007407868560665645701_);" d="M296.038,153.896
				c-2.636-8.886-5.755-15.729-9.378-20.996c7.803,18.044,12.785,39.272,1.288,55.758c-18.561,26.613-55.735,5.993-71.629-13.149
				c-7.877-9.486-14.659-20.494-15.609-33.099c-0.387-5.136,0.045-10.959,2.133-15.719c-6.871,7.047-8.162,18.152-0.387,35.057
				c16.347,35.543,53.534,45.463,66.61,44.223C282.144,204.73,307.072,191.093,296.038,153.896z"/>
			
				<radialGradient id="SVGID_00000038413218207424052940000005607998847122588807_" cx="233.5328" cy="114.3507" r="101.1812" gradientTransform="matrix(1.0189 0 0 1.0305 0.248 -8.2695)" gradientUnits="userSpaceOnUse">
				<stop  offset="0.0384" style="stop-color:#3B5A2A"/>
				<stop  offset="0.4196" style="stop-color:#313C26"/>
				<stop  offset="0.7661" style="stop-color:#2A2824"/>
				<stop  offset="1" style="stop-color:#272123"/>
			</radialGradient>
			<path style="fill:url(#SVGID_00000038413218207424052940000005607998847122588807_);" d="M266.759,207.311
				c-7.297,0-19.654-2.549-32.456-9.702c-10.257-5.733-24.303-16.518-32.958-35.337c-6.387-13.887-7.129-24.941-2.209-32.856
				c5.918-9.52,20.092-14.493,42.126-14.782c1.073-0.015,2.132-0.023,3.176-0.023c11.094,0,22.651,0.804,32.022,6.63
				c9.348,5.814,15.941,16.078,20.753,32.299c4.61,15.542,3.57,28.492-3.094,38.491c-6.723,10.092-17.636,14.48-24.938,15.175
				C268.437,207.276,267.622,207.311,266.759,207.311z M244.438,117.09c-1.033,0-2.081,0.007-3.143,0.023
				c-21.15,0.277-34.637,4.86-40.082,13.622c-4.449,7.159-3.658,17.418,2.357,30.491c8.377,18.214,21.982,28.659,31.92,34.212
				c12.394,6.925,24.28,9.393,31.27,9.393c0.787,0,1.525-0.031,2.194-0.095c6.769-0.642,16.888-4.715,23.133-14.087
				c6.233-9.356,7.167-21.601,2.777-36.396C285.546,122.838,270.571,117.09,244.438,117.09z"/>
			<defs>
				
					<filter id="Adobe_OpacityMaskFilter_00000094586476383612661620000013504514150842591886_" filterUnits="userSpaceOnUse" x="203.842" y="126.31" width="11.819" height="20.291">
					<feFlood  style="flood-color:white;flood-opacity:1" result="back"/>
					<feBlend  in="SourceGraphic" in2="back" mode="normal"/>
				</filter>
			</defs>
			
				<mask maskUnits="userSpaceOnUse" x="203.842" y="126.31" width="11.819" height="20.291" id="SVGID_00000041296622879240390360000007210649552533489280_">
				<g style="filter:url(#Adobe_OpacityMaskFilter_00000094586476383612661620000013504514150842591886_);">
					<defs>
						
							<filter id="Adobe_OpacityMaskFilter_00000147912576209159281980000016199364454692431020_" filterUnits="userSpaceOnUse" x="203.842" y="126.31" width="11.819" height="20.291">
							<feFlood  style="flood-color:white;flood-opacity:1" result="back"/>
							<feBlend  in="SourceGraphic" in2="back" mode="normal"/>
						</filter>
					</defs>
					
						<mask maskUnits="userSpaceOnUse" x="203.842" y="126.31" width="11.819" height="20.291" id="SVGID_00000041296622879240390360000007210649552533489280_">
						<g style="filter:url(#Adobe_OpacityMaskFilter_00000147912576209159281980000016199364454692431020_);">
						</g>
					</mask>
					
						<linearGradient id="SVGID_00000073718710529329468400000006224328197640375478_" gradientUnits="userSpaceOnUse" x1="209.7515" y1="115.1516" x2="209.7515" y2="207.8252">
						<stop  offset="0.1517" style="stop-color:#FFFFFF"/>
						<stop  offset="0.4675" style="stop-color:#FFFFFF"/>
						<stop  offset="0.5067" style="stop-color:#F8F8F8"/>
						<stop  offset="0.5648" style="stop-color:#E4E4E4"/>
						<stop  offset="0.6347" style="stop-color:#C3C3C3"/>
						<stop  offset="0.7137" style="stop-color:#959595"/>
						<stop  offset="0.8005" style="stop-color:#5A5A5A"/>
						<stop  offset="0.8924" style="stop-color:#141414"/>
						<stop  offset="0.9162" style="stop-color:#000000"/>
					</linearGradient>
					
						<path style="mask:url(#SVGID_00000041296622879240390360000007210649552533489280_);fill:url(#SVGID_00000073718710529329468400000006224328197640375478_);" d="
						M215.661,143.693c-4.313-11.557-3.825-17.383-3.825-17.383c-7.966,5.885-8.923,13.396-7.371,20.29
						C208.047,145.197,211.825,144.245,215.661,143.693z"/>
				</g>
			</mask>
			
				<linearGradient id="SVGID_00000074434327326534928990000017056360658738950575_" gradientUnits="userSpaceOnUse" x1="209.7515" y1="115.1516" x2="209.7515" y2="207.8252">
				<stop  offset="0.1517" style="stop-color:#FFD752"/>
				<stop  offset="0.1975" style="stop-color:#E3CF50"/>
				<stop  offset="0.3279" style="stop-color:#97B94B"/>
				<stop  offset="0.4212" style="stop-color:#68AB47"/>
				<stop  offset="0.4675" style="stop-color:#56A646"/>
				<stop  offset="0.7173" style="stop-color:#4FA44D"/>
				<stop  offset="0.9162" style="stop-color:#46A157"/>
			</linearGradient>
			<path style="fill:url(#SVGID_00000074434327326534928990000017056360658738950575_);" d="M215.661,143.693
				c-4.313-11.557-3.825-17.383-3.825-17.383c-7.966,5.885-8.923,13.396-7.371,20.29
				C208.047,145.197,211.825,144.245,215.661,143.693z"/>
			<defs>
				
					<filter id="Adobe_OpacityMaskFilter_00000145766634418309354060000007057331559952564625_" filterUnits="userSpaceOnUse" x="205.265" y="146.546" width="58.063" height="56.324">
					<feColorMatrix  type="matrix" values="1 0 0 0 0  0 1 0 0 0  0 0 1 0 0  0 0 0 1 0"/>
				</filter>
			</defs>
			
				<mask maskUnits="userSpaceOnUse" x="205.265" y="146.546" width="58.063" height="56.324" id="SVGID_00000177458672516943284300000010487531386705420466_">
				<g style="filter:url(#Adobe_OpacityMaskFilter_00000145766634418309354060000007057331559952564625_);">
					<defs>
						
							<filter id="Adobe_OpacityMaskFilter_00000044878260615785597760000002598515678385387667_" filterUnits="userSpaceOnUse" x="205.265" y="146.546" width="58.063" height="56.324">
							<feFlood  style="flood-color:white;flood-opacity:1" result="back"/>
							<feBlend  in="SourceGraphic" in2="back" mode="normal"/>
						</filter>
					</defs>
					
						<mask maskUnits="userSpaceOnUse" x="205.265" y="146.546" width="58.063" height="56.324" id="SVGID_00000177458672516943284300000010487531386705420466_">
						<g style="filter:url(#Adobe_OpacityMaskFilter_00000044878260615785597760000002598515678385387667_);">
						</g>
					</mask>
					
						<linearGradient id="SVGID_00000155110194582807459850000006402026398294058166_" gradientUnits="userSpaceOnUse" x1="234.2959" y1="115.1504" x2="234.2959" y2="207.8296">
						<stop  offset="0.1517" style="stop-color:#FFFFFF"/>
						<stop  offset="0.4675" style="stop-color:#FFFFFF"/>
						<stop  offset="0.5067" style="stop-color:#F8F8F8"/>
						<stop  offset="0.5648" style="stop-color:#E4E4E4"/>
						<stop  offset="0.6347" style="stop-color:#C3C3C3"/>
						<stop  offset="0.7137" style="stop-color:#959595"/>
						<stop  offset="0.8005" style="stop-color:#5A5A5A"/>
						<stop  offset="0.8924" style="stop-color:#141414"/>
						<stop  offset="0.9162" style="stop-color:#000000"/>
					</linearGradient>
					
						<path style="mask:url(#SVGID_00000177458672516943284300000010487531386705420466_);fill:url(#SVGID_00000155110194582807459850000006402026398294058166_);" d="
						M222.564,158.648c-2.441-4.504-4.325-8.535-5.785-12.102c-3.959,0.513-7.85,1.47-11.514,2.942
						c1.866,5.731,5.108,10.773,6.877,13.706c21.455,35.543,51.186,39.676,51.186,39.676
						C253.519,199.15,232.941,177.801,222.564,158.648z"/>
				</g>
			</mask>
			
				<linearGradient id="SVGID_00000062156183063977879680000015331355463757490568_" gradientUnits="userSpaceOnUse" x1="234.2959" y1="115.1504" x2="234.2959" y2="207.8296">
				<stop  offset="0.1517" style="stop-color:#FFD752"/>
				<stop  offset="0.1975" style="stop-color:#E3CF50"/>
				<stop  offset="0.3279" style="stop-color:#97B94B"/>
				<stop  offset="0.4212" style="stop-color:#68AB47"/>
				<stop  offset="0.4675" style="stop-color:#56A646"/>
				<stop  offset="0.7173" style="stop-color:#4FA44D"/>
				<stop  offset="0.9162" style="stop-color:#46A157"/>
			</linearGradient>
			<path style="fill:url(#SVGID_00000062156183063977879680000015331355463757490568_);" d="M222.564,158.648
				c-2.441-4.504-4.325-8.535-5.785-12.102c-3.959,0.513-7.85,1.47-11.514,2.942c1.866,5.731,5.108,10.773,6.877,13.706
				c21.455,35.543,51.186,39.676,51.186,39.676C253.519,199.15,232.941,177.801,222.564,158.648z"/>
			
				<radialGradient id="SVGID_00000101804898233115900650000001347596991923549622_" cx="127.3467" cy="108.9364" r="102.3575" gradientTransform="matrix(1.0189 0 0 1.0305 0.248 -8.2695)" gradientUnits="userSpaceOnUse">
				<stop  offset="0.0384" style="stop-color:#3B5A2A"/>
				<stop  offset="0.4196" style="stop-color:#313C26"/>
				<stop  offset="0.7661" style="stop-color:#2A2824"/>
				<stop  offset="1" style="stop-color:#272123"/>
			</radialGradient>
			<path style="fill:url(#SVGID_00000101804898233115900650000001347596991923549622_);" d="M132.564,117.09
				c-26.134,0-41.106,5.748-50.426,37.162c-4.389,14.795-3.454,27.04,2.777,36.396c6.245,9.372,16.365,13.446,23.134,14.087
				c0.668,0.064,1.406,0.095,2.193,0.095h0.003c6.99,0,18.875-2.468,31.267-9.393c9.939-5.553,23.543-15.999,31.92-34.212
				c6.014-13.073,6.807-23.332,2.356-30.491c-5.446-8.762-18.933-13.344-40.083-13.622
				C134.645,117.098,133.597,117.09,132.564,117.09z M110.245,207.311c-0.002,0-0.002,0-0.002,0c-0.864,0-1.679-0.034-2.423-0.105
				c-7.302-0.695-18.214-5.083-24.938-15.175c-6.662-9.999-7.703-22.95-3.093-38.491c4.812-16.221,11.406-26.485,20.753-32.299
				c9.371-5.826,20.928-6.63,32.022-6.63c1.045,0,2.104,0.008,3.176,0.023c22.035,0.289,36.209,5.263,42.126,14.782
				c4.921,7.915,4.178,18.969-2.208,32.856c-8.656,18.819-22.701,29.604-32.959,35.337
				C129.898,204.762,117.54,207.311,110.245,207.311z"/>
			<defs>
				
					<filter id="Adobe_OpacityMaskFilter_00000133491048144404772450000009759197365061884093_" filterUnits="userSpaceOnUse" x="94.489" y="121.04" width="20.188" height="14.81">
					<feFlood  style="flood-color:white;flood-opacity:1" result="back"/>
					<feBlend  in="SourceGraphic" in2="back" mode="normal"/>
				</filter>
			</defs>
			
				<mask maskUnits="userSpaceOnUse" x="94.489" y="121.04" width="20.188" height="14.81" id="SVGID_00000111910165585530585870000005603317418879339937_">
				<g style="filter:url(#Adobe_OpacityMaskFilter_00000133491048144404772450000009759197365061884093_);">
					<defs>
						
							<filter id="Adobe_OpacityMaskFilter_00000011720564921246675240000016181030987002865546_" filterUnits="userSpaceOnUse" x="94.489" y="121.04" width="20.188" height="14.81">
							<feFlood  style="flood-color:white;flood-opacity:1" result="back"/>
							<feBlend  in="SourceGraphic" in2="back" mode="normal"/>
						</filter>
					</defs>
					
						<mask maskUnits="userSpaceOnUse" x="94.489" y="121.04" width="20.188" height="14.81" id="SVGID_00000111910165585530585870000005603317418879339937_">
						<g style="filter:url(#Adobe_OpacityMaskFilter_00000011720564921246675240000016181030987002865546_);">
						</g>
					</mask>
					
						<linearGradient id="SVGID_00000126283159547607856170000013701903200474818475_" gradientUnits="userSpaceOnUse" x1="105.5012" y1="126.2908" x2="79.1609" y2="188.0252">
						<stop  offset="0" style="stop-color:#FFFFFF"/>
						<stop  offset="0.4675" style="stop-color:#FFFFFF"/>
						<stop  offset="0.514" style="stop-color:#F8F8F8"/>
						<stop  offset="0.5829" style="stop-color:#E4E4E4"/>
						<stop  offset="0.6659" style="stop-color:#C3C3C3"/>
						<stop  offset="0.7597" style="stop-color:#959595"/>
						<stop  offset="0.8627" style="stop-color:#5A5A5A"/>
						<stop  offset="0.9717" style="stop-color:#141414"/>
						<stop  offset="1" style="stop-color:#000000"/>
					</linearGradient>
					
						<path style="mask:url(#SVGID_00000111910165585530585870000005603317418879339937_);fill:url(#SVGID_00000126283159547607856170000013701903200474818475_);" d="
						M104.904,135.849c2.638-4.671,5.858-9.605,9.774-14.81c0,0-12.523,0.311-20.188,14.804
						C97.868,135.266,101.47,135.416,104.904,135.849z"/>
				</g>
			</mask>
			
				<linearGradient id="SVGID_00000042706853132448116050000014947658579805196177_" gradientUnits="userSpaceOnUse" x1="105.5012" y1="126.2908" x2="79.1609" y2="188.0252">
				<stop  offset="0" style="stop-color:#FFD752"/>
				<stop  offset="0.0678" style="stop-color:#E3CF50"/>
				<stop  offset="0.2608" style="stop-color:#97B94B"/>
				<stop  offset="0.3989" style="stop-color:#68AB47"/>
				<stop  offset="0.4675" style="stop-color:#56A646"/>
				<stop  offset="0.7639" style="stop-color:#4FA44D"/>
				<stop  offset="1" style="stop-color:#46A157"/>
			</linearGradient>
			<path style="fill:url(#SVGID_00000042706853132448116050000014947658579805196177_);" d="M104.904,135.849
				c2.638-4.671,5.858-9.605,9.774-14.81c0,0-12.523,0.311-20.188,14.804C97.868,135.266,101.47,135.416,104.904,135.849z"/>
			<defs>
				
					<filter id="Adobe_OpacityMaskFilter_00000125591839920969645090000012065230131330504890_" filterUnits="userSpaceOnUse" x="85.175" y="138.404" width="18.2" height="57.337">
					<feColorMatrix  type="matrix" values="1 0 0 0 0  0 1 0 0 0  0 0 1 0 0  0 0 0 1 0"/>
				</filter>
			</defs>
			
				<mask maskUnits="userSpaceOnUse" x="85.175" y="138.404" width="18.2" height="57.337" id="SVGID_00000181088387654089433340000013491998317301086141_">
				<g style="filter:url(#Adobe_OpacityMaskFilter_00000125591839920969645090000012065230131330504890_);">
					<defs>
						
							<filter id="Adobe_OpacityMaskFilter_00000051379313140017879240000014834041173587323303_" filterUnits="userSpaceOnUse" x="85.175" y="138.404" width="18.2" height="57.337">
							<feFlood  style="flood-color:white;flood-opacity:1" result="back"/>
							<feBlend  in="SourceGraphic" in2="back" mode="normal"/>
						</filter>
					</defs>
					
						<mask maskUnits="userSpaceOnUse" x="85.175" y="138.404" width="18.2" height="57.337" id="SVGID_00000181088387654089433340000013491998317301086141_">
						<g style="filter:url(#Adobe_OpacityMaskFilter_00000051379313140017879240000014834041173587323303_);">
						</g>
					</mask>
					
						<linearGradient id="SVGID_00000117669664536324722510000009364787220927314862_" gradientUnits="userSpaceOnUse" x1="113.6203" y1="129.7376" x2="87.1709" y2="191.7279">
						<stop  offset="0" style="stop-color:#FFFFFF"/>
						<stop  offset="0.4675" style="stop-color:#FFFFFF"/>
						<stop  offset="0.514" style="stop-color:#F8F8F8"/>
						<stop  offset="0.5829" style="stop-color:#E4E4E4"/>
						<stop  offset="0.6659" style="stop-color:#C3C3C3"/>
						<stop  offset="0.7597" style="stop-color:#959595"/>
						<stop  offset="0.8627" style="stop-color:#5A5A5A"/>
						<stop  offset="0.9717" style="stop-color:#141414"/>
						<stop  offset="1" style="stop-color:#000000"/>
					</linearGradient>
					
						<path style="mask:url(#SVGID_00000181088387654089433340000013491998317301086141_);fill:url(#SVGID_00000117669664536324722510000009364787220927314862_);" d="
						M103.374,138.648c-3.603-0.391-7.348-0.403-10.633,0.632c-7.472,15.296-15.92,41.215,9.676,56.46
						C102.417,195.741,83.499,176.365,103.374,138.648z"/>
				</g>
			</mask>
			
				<linearGradient id="SVGID_00000068648450629546415910000012813453782340721583_" gradientUnits="userSpaceOnUse" x1="113.6203" y1="129.7376" x2="87.1709" y2="191.7279">
				<stop  offset="0" style="stop-color:#FFD752"/>
				<stop  offset="0.0678" style="stop-color:#E3CF50"/>
				<stop  offset="0.2608" style="stop-color:#97B94B"/>
				<stop  offset="0.3989" style="stop-color:#68AB47"/>
				<stop  offset="0.4675" style="stop-color:#56A646"/>
				<stop  offset="0.7639" style="stop-color:#4FA44D"/>
				<stop  offset="1" style="stop-color:#46A157"/>
			</linearGradient>
			<path style="fill:url(#SVGID_00000068648450629546415910000012813453782340721583_);" d="M103.374,138.648
				c-3.603-0.391-7.348-0.403-10.633,0.632c-7.472,15.296-15.92,41.215,9.676,56.46C102.417,195.741,83.499,176.365,103.374,138.648
				z"/>
			<defs>
				
					<filter id="Adobe_OpacityMaskFilter_00000029755886644237613240000006761294471990735517_" filterUnits="userSpaceOnUse" x="84.278" y="118.33" width="90.932" height="53.526">
					<feColorMatrix  type="matrix" values="1 0 0 0 0  0 1 0 0 0  0 0 1 0 0  0 0 0 1 0"/>
				</filter>
			</defs>
			
				<mask maskUnits="userSpaceOnUse" x="84.278" y="118.33" width="90.932" height="53.526" id="SVGID_00000129921448169520001410000015364238712741611146_">
				<g style="filter:url(#Adobe_OpacityMaskFilter_00000029755886644237613240000006761294471990735517_);">
					<defs>
						
							<filter id="Adobe_OpacityMaskFilter_00000103984901705927887360000009412057930336928942_" filterUnits="userSpaceOnUse" x="84.278" y="118.33" width="90.932" height="53.526">
							<feFlood  style="flood-color:white;flood-opacity:1" result="back"/>
							<feBlend  in="SourceGraphic" in2="back" mode="normal"/>
						</filter>
					</defs>
					
						<mask maskUnits="userSpaceOnUse" x="84.278" y="118.33" width="90.932" height="53.526" id="SVGID_00000129921448169520001410000015364238712741611146_">
						<g style="filter:url(#Adobe_OpacityMaskFilter_00000103984901705927887360000009412057930336928942_);">
						</g>
					</mask>
					
						<radialGradient id="SVGID_00000134252136350463930490000008699320468003309991_" cx="115.7164" cy="122.0713" r="50.1329" gradientTransform="matrix(1.0189 0 0 1.0305 0.248 -8.2695)" gradientUnits="userSpaceOnUse">
						<stop  offset="0.0524" style="stop-color:#FFFFFF"/>
						<stop  offset="0.2719" style="stop-color:#FFFFFF"/>
						<stop  offset="0.5423" style="stop-color:#FFFFFF"/>
						<stop  offset="0.6164" style="stop-color:#CECECE"/>
						<stop  offset="0.7577" style="stop-color:#777777"/>
						<stop  offset="0.8731" style="stop-color:#373737"/>
						<stop  offset="0.9567" style="stop-color:#0F0F0F"/>
						<stop  offset="1" style="stop-color:#000000"/>
					</radialGradient>
					
						<path style="mask:url(#SVGID_00000129921448169520001410000015364238712741611146_);fill:url(#SVGID_00000134252136350463930490000008699320468003309991_);" d="
						M84.417,171.854c14.264-17.211,34.428-28.781,55.864-34.151c11.087-2.778,22.54-4.005,33.96-3.528
						c0.322,0.014,0.646,0.025,0.969,0.039c-4.467-11.689-20.11-15.618-38.764-15.863c-24.1-0.317-40.277,2.8-49.68,34.496
						c-2.167,7.306-2.803,13.606-2.352,19.01C84.415,171.855,84.415,171.854,84.417,171.854z"/>
				</g>
			</mask>
			
				<radialGradient id="SVGID_00000178205813653308335500000014681146082493440403_" cx="115.7164" cy="122.0713" r="50.1329" gradientTransform="matrix(1.0189 0 0 1.0305 0.248 -8.2695)" gradientUnits="userSpaceOnUse">
				<stop  offset="0.0524" style="stop-color:#F4F5F5"/>
				<stop  offset="0.2719" style="stop-color:#FFD752"/>
				<stop  offset="0.3111" style="stop-color:#E3CF50"/>
				<stop  offset="0.4228" style="stop-color:#97B94B"/>
				<stop  offset="0.5026" style="stop-color:#68AB47"/>
				<stop  offset="0.5423" style="stop-color:#56A646"/>
				<stop  offset="0.5871" style="stop-color:#54A548"/>
				<stop  offset="1" style="stop-color:#46A157"/>
			</radialGradient>
			<path style="fill:url(#SVGID_00000178205813653308335500000014681146082493440403_);" d="M84.417,171.854
				c14.264-17.211,34.428-28.781,55.864-34.151c11.087-2.778,22.54-4.005,33.96-3.528c0.322,0.014,0.646,0.025,0.969,0.039
				c-4.467-11.689-20.11-15.618-38.764-15.863c-24.1-0.317-40.277,2.8-49.68,34.496c-2.167,7.306-2.803,13.606-2.352,19.01
				C84.415,171.855,84.415,171.854,84.417,171.854z"/>
			<defs>
				
					<filter id="Adobe_OpacityMaskFilter_00000107556822402016414070000005202263797638409146_" filterUnits="userSpaceOnUse" x="202.925" y="118.641" width="69.093" height="55.108">
					<feColorMatrix  type="matrix" values="1 0 0 0 0  0 1 0 0 0  0 0 1 0 0  0 0 0 1 0"/>
				</filter>
			</defs>
			
				<mask maskUnits="userSpaceOnUse" x="202.925" y="118.641" width="69.093" height="55.108" id="SVGID_00000182520286424898704390000009869503264456095647_">
				<g style="filter:url(#Adobe_OpacityMaskFilter_00000107556822402016414070000005202263797638409146_);">
					<defs>
						
							<filter id="Adobe_OpacityMaskFilter_00000039827614091962725360000015177381574203100057_" filterUnits="userSpaceOnUse" x="202.925" y="118.641" width="69.093" height="55.108">
							<feFlood  style="flood-color:white;flood-opacity:1" result="back"/>
							<feBlend  in="SourceGraphic" in2="back" mode="normal"/>
						</filter>
					</defs>
					
						<mask maskUnits="userSpaceOnUse" x="202.925" y="118.641" width="69.093" height="55.108" id="SVGID_00000182520286424898704390000009869503264456095647_">
						<g style="filter:url(#Adobe_OpacityMaskFilter_00000039827614091962725360000015177381574203100057_);">
						</g>
					</mask>
					
						<radialGradient id="SVGID_00000136390052197910405750000003310461985779107244_" cx="259.1316" cy="128.8906" r="46.7321" gradientTransform="matrix(1.0726 0 0 1.0305 -64.4563 -8.2695)" gradientUnits="userSpaceOnUse">
						<stop  offset="0.0524" style="stop-color:#FFFFFF"/>
						<stop  offset="0.2719" style="stop-color:#FFFFFF"/>
						<stop  offset="0.5423" style="stop-color:#FFFFFF"/>
						<stop  offset="0.6164" style="stop-color:#CECECE"/>
						<stop  offset="0.7577" style="stop-color:#777777"/>
						<stop  offset="0.8731" style="stop-color:#373737"/>
						<stop  offset="0.9567" style="stop-color:#0F0F0F"/>
						<stop  offset="1" style="stop-color:#000000"/>
					</radialGradient>
					
						<path style="mask:url(#SVGID_00000182520286424898704390000009869503264456095647_);fill:url(#SVGID_00000136390052197910405750000003310461985779107244_);" d="
						M232.171,149.132c10.025-12.688,24.211-20.984,39.848-25.294c-8.121-4.644-18.111-5.329-30.127-5.179
						c-27.778,0.346-48.701,8.664-34.271,38.467c3.161,6.529,7.206,12.026,11.718,16.622
						C222.105,164.943,226.282,156.583,232.171,149.132z"/>
				</g>
			</mask>
			
				<radialGradient id="SVGID_00000064353268991791994290000005601284298809568410_" cx="259.1316" cy="128.8906" r="46.7321" gradientTransform="matrix(1.0726 0 0 1.0305 -64.4563 -8.2695)" gradientUnits="userSpaceOnUse">
				<stop  offset="0.0524" style="stop-color:#F4F5F5"/>
				<stop  offset="0.2719" style="stop-color:#FFD752"/>
				<stop  offset="0.3111" style="stop-color:#E3CF50"/>
				<stop  offset="0.4228" style="stop-color:#97B94B"/>
				<stop  offset="0.5026" style="stop-color:#68AB47"/>
				<stop  offset="0.5423" style="stop-color:#56A646"/>
				<stop  offset="0.5871" style="stop-color:#54A548"/>
				<stop  offset="1" style="stop-color:#46A157"/>
			</radialGradient>
			<path style="fill:url(#SVGID_00000064353268991791994290000005601284298809568410_);" d="M232.171,149.132
				c10.025-12.688,24.211-20.984,39.848-25.294c-8.121-4.644-18.111-5.329-30.127-5.179c-27.778,0.346-48.701,8.664-34.271,38.467
				c3.161,6.529,7.206,12.026,11.718,16.622C222.105,164.943,226.282,156.583,232.171,149.132z"/>
			
				<linearGradient id="SVGID_00000026139279496498872810000005713205022328453016_" gradientUnits="userSpaceOnUse" x1="80.5681" y1="138.6011" x2="180.1447" y2="138.6011">
				<stop  offset="0" style="stop-color:#272123"/>
				<stop  offset="0.0375" style="stop-color:#2E282A"/>
				<stop  offset="0.0931" style="stop-color:#413C3E"/>
				<stop  offset="0.16" style="stop-color:#615D5F"/>
				<stop  offset="0.2357" style="stop-color:#8E8B8C"/>
				<stop  offset="0.3177" style="stop-color:#C6C5C5"/>
				<stop  offset="0.3788" style="stop-color:#F4F5F5"/>
				<stop  offset="0.4601" style="stop-color:#DBE0D9"/>
				<stop  offset="0.6358" style="stop-color:#9AAA92"/>
				<stop  offset="0.8721" style="stop-color:#3B5A2A"/>
				<stop  offset="0.9982" style="stop-color:#397639"/>
				<stop  offset="1" style="stop-color:#397639"/>
			</linearGradient>
			<path style="fill:url(#SVGID_00000026139279496498872810000005713205022328453016_);" d="M80.861,153.391
				c0,0,0.175-0.571,0.501-1.643c0.316-1.075,0.828-2.639,1.526-4.61c0.705-1.971,1.639-4.337,2.866-6.981
				c1.251-2.629,2.809-5.549,4.926-8.451c2.111-2.893,4.738-5.827,8.058-8.263c3.291-2.482,7.243-4.373,11.531-5.64
				c4.294-1.242,8.878-1.911,13.538-2.206c4.665-0.293,9.404-0.302,14.144-0.177c4.736,0.149,9.482,0.535,14.094,1.308
				c0.575,0.101,1.152,0.181,1.724,0.298c0.569,0.122,1.139,0.24,1.706,0.358c1.14,0.215,2.25,0.541,3.361,0.824
				c1.112,0.286,2.188,0.676,3.271,1.006c0.53,0.204,1.059,0.407,1.584,0.608c0.527,0.198,1.053,0.397,1.555,0.645
				c0.51,0.235,1.016,0.468,1.52,0.699c0.498,0.245,0.975,0.528,1.459,0.789c0.986,0.493,1.864,1.157,2.773,1.737
				c1.729,1.303,3.305,2.743,4.596,4.367c0.321,0.404,0.598,0.841,0.895,1.255c0.145,0.216,0.291,0.407,0.434,0.639l0.368,0.654
				c0.247,0.432,0.491,0.862,0.683,1.327c0.192,0.459,0.439,0.894,0.581,1.361c0.717,1.819,1.081,3.687,1.28,5.478
				c0.396,3.605-0.03,6.926-0.626,9.78c-0.602,2.861-1.387,5.29-2.12,7.248c-0.348,0.989-0.707,1.85-1.019,2.6
				c-0.301,0.756-0.581,1.386-0.817,1.895c-0.461,1.019-0.708,1.563-0.708,1.563s0.237-0.548,0.684-1.576
				c0.228-0.511,0.498-1.147,0.787-1.905c0.299-0.754,0.645-1.622,0.977-2.613c0.701-1.966,1.446-4.4,2-7.256
				c0.546-2.847,0.914-6.148,0.5-9.696c-0.213-1.764-0.586-3.598-1.305-5.372c-0.145-0.459-0.386-0.875-0.576-1.318
				c-0.186-0.445-0.435-0.872-0.687-1.303l-0.372-0.65c-0.124-0.194-0.283-0.404-0.423-0.606c-0.295-0.402-0.567-0.827-0.885-1.22
				c-1.276-1.576-2.832-2.971-4.538-4.234c-0.444-0.289-0.892-0.579-1.342-0.871c-0.441-0.306-0.914-0.565-1.393-0.82
				s-0.947-0.532-1.439-0.772c-0.497-0.227-0.997-0.455-1.498-0.685c-0.498-0.242-1.016-0.437-1.537-0.631
				c-0.52-0.199-1.043-0.397-1.566-0.597c-1.074-0.323-2.139-0.706-3.24-0.985c-1.104-0.279-2.203-0.597-3.334-0.805
				c-0.563-0.117-1.128-0.236-1.693-0.352c-0.566-0.115-1.141-0.192-1.713-0.292c-4.585-0.752-9.295-1.122-14.016-1.259
				c-4.721-0.139-9.457-0.143-14.093,0.133c-4.636,0.28-9.179,0.932-13.427,2.146c-2.117,0.623-4.153,1.398-6.07,2.303
				c-0.475,0.235-0.945,0.469-1.414,0.702c-0.46,0.265-0.918,0.525-1.371,0.783c-0.449,0.244-0.873,0.557-1.305,0.829l-0.643,0.418
				L99,123.807c-3.297,2.374-5.922,5.253-8.044,8.106c-2.117,2.864-3.715,5.74-5.004,8.341c-1.264,2.615-2.232,4.963-2.967,6.92
				c-0.729,1.958-1.264,3.512-1.598,4.581C81.045,152.823,80.861,153.391,80.861,153.391z"/>
			
				<linearGradient id="SVGID_00000160183309208554583870000004122754252840569745_" gradientUnits="userSpaceOnUse" x1="80.5681" y1="138.6011" x2="180.1447" y2="138.6011">
				<stop  offset="0" style="stop-color:#272123"/>
				<stop  offset="0.0375" style="stop-color:#2E282A"/>
				<stop  offset="0.0931" style="stop-color:#413C3E"/>
				<stop  offset="0.16" style="stop-color:#615D5F"/>
				<stop  offset="0.2357" style="stop-color:#8E8B8C"/>
				<stop  offset="0.3177" style="stop-color:#C6C5C5"/>
				<stop  offset="0.3788" style="stop-color:#F4F5F5"/>
				<stop  offset="0.4601" style="stop-color:#DBE0D9"/>
				<stop  offset="0.6358" style="stop-color:#9AAA92"/>
				<stop  offset="0.8721" style="stop-color:#3B5A2A"/>
				<stop  offset="0.9982" style="stop-color:#397639"/>
				<stop  offset="1" style="stop-color:#397639"/>
			</linearGradient>
			<path style="fill:url(#SVGID_00000160183309208554583870000004122754252840569745_);" d="M80.861,153.391
				c0,0,0.175-0.571,0.501-1.643c0.316-1.075,0.828-2.639,1.526-4.61c0.705-1.971,1.639-4.337,2.866-6.981
				c1.251-2.629,2.809-5.549,4.926-8.451c2.111-2.893,4.738-5.827,8.058-8.263c3.291-2.482,7.243-4.373,11.531-5.64
				c4.294-1.242,8.878-1.911,13.538-2.206c4.665-0.293,9.404-0.302,14.144-0.177c4.736,0.149,9.482,0.535,14.094,1.308
				c0.575,0.101,1.152,0.181,1.724,0.298c0.569,0.122,1.139,0.24,1.706,0.358c1.14,0.215,2.25,0.541,3.361,0.824
				c1.112,0.286,2.188,0.676,3.271,1.006c0.53,0.204,1.059,0.407,1.584,0.608c0.527,0.198,1.053,0.397,1.555,0.645
				c0.51,0.235,1.016,0.468,1.52,0.699c0.498,0.245,0.975,0.528,1.459,0.789c0.986,0.493,1.864,1.157,2.773,1.737
				c1.729,1.303,3.305,2.743,4.596,4.367c0.321,0.404,0.598,0.841,0.895,1.255c0.145,0.216,0.291,0.407,0.434,0.639l0.368,0.654
				c0.247,0.432,0.491,0.862,0.683,1.327c0.192,0.459,0.439,0.894,0.581,1.361c0.717,1.819,1.081,3.687,1.28,5.478
				c0.396,3.605-0.03,6.926-0.626,9.78c-0.602,2.861-1.387,5.29-2.12,7.248c-0.348,0.989-0.707,1.85-1.019,2.6
				c-0.301,0.756-0.581,1.386-0.817,1.895c-0.461,1.019-0.708,1.563-0.708,1.563s0.237-0.548,0.684-1.576
				c0.228-0.511,0.498-1.147,0.787-1.905c0.299-0.754,0.645-1.622,0.977-2.613c0.701-1.966,1.446-4.4,2-7.256
				c0.546-2.847,0.914-6.148,0.5-9.696c-0.213-1.764-0.586-3.598-1.305-5.372c-0.145-0.459-0.386-0.875-0.576-1.318
				c-0.186-0.445-0.435-0.872-0.687-1.303l-0.372-0.65c-0.124-0.194-0.283-0.404-0.423-0.606c-0.295-0.402-0.567-0.827-0.885-1.22
				c-1.276-1.576-2.832-2.971-4.538-4.234c-0.444-0.289-0.892-0.579-1.342-0.871c-0.441-0.306-0.914-0.565-1.393-0.82
				s-0.947-0.532-1.439-0.772c-0.497-0.227-0.997-0.455-1.498-0.685c-0.498-0.242-1.016-0.437-1.537-0.631
				c-0.52-0.199-1.043-0.397-1.566-0.597c-1.074-0.323-2.139-0.706-3.24-0.985c-1.104-0.279-2.203-0.597-3.334-0.805
				c-0.563-0.117-1.128-0.236-1.693-0.352c-0.566-0.115-1.141-0.192-1.713-0.292c-4.585-0.752-9.295-1.122-14.016-1.259
				c-4.721-0.139-9.457-0.143-14.093,0.133c-4.636,0.28-9.179,0.932-13.427,2.146c-2.117,0.623-4.153,1.398-6.07,2.303
				c-0.475,0.235-0.945,0.469-1.414,0.702c-0.46,0.265-0.918,0.525-1.371,0.783c-0.449,0.244-0.873,0.557-1.305,0.829l-0.643,0.418
				L99,123.807c-3.297,2.374-5.922,5.253-8.044,8.106c-2.117,2.864-3.715,5.74-5.004,8.341c-1.264,2.615-2.232,4.963-2.967,6.92
				c-0.729,1.958-1.264,3.512-1.598,4.581C81.045,152.823,80.861,153.391,80.861,153.391z"/>
			
				<linearGradient id="SVGID_00000121989332795146770270000018359755919576789143_" gradientUnits="userSpaceOnUse" x1="296.599" y1="138.6009" x2="197.0231" y2="138.6009">
				<stop  offset="0" style="stop-color:#397639"/>
				<stop  offset="0.0018" style="stop-color:#397639"/>
				<stop  offset="0.1279" style="stop-color:#3B5A2A"/>
				<stop  offset="0.3642" style="stop-color:#9AAA92"/>
				<stop  offset="0.5399" style="stop-color:#DBE0D9"/>
				<stop  offset="0.6212" style="stop-color:#F4F5F5"/>
				<stop  offset="0.6823" style="stop-color:#C6C5C5"/>
				<stop  offset="0.7643" style="stop-color:#8E8B8C"/>
				<stop  offset="0.84" style="stop-color:#615D5F"/>
				<stop  offset="0.9069" style="stop-color:#413C3E"/>
				<stop  offset="0.9625" style="stop-color:#2E282A"/>
				<stop  offset="1" style="stop-color:#272123"/>
			</linearGradient>
			<path style="fill:url(#SVGID_00000121989332795146770270000018359755919576789143_);" d="M202.622,161.858
				c0,0-0.246-0.544-0.708-1.563c-0.236-0.509-0.517-1.139-0.817-1.895c-0.311-0.75-0.671-1.613-1.018-2.6
				c-0.733-1.96-1.519-4.387-2.12-7.248c-0.596-2.854-1.021-6.175-0.625-9.78c0.199-1.792,0.563-3.659,1.28-5.478
				c0.144-0.467,0.386-0.898,0.578-1.356c0.19-0.459,0.437-0.894,0.687-1.331l0.372-0.66c0.145-0.234,0.287-0.42,0.433-0.635
				c0.294-0.411,0.563-0.839,0.885-1.244c1.301-1.64,2.873-3.07,4.602-4.375c0.911-0.579,1.787-1.245,2.773-1.738
				c0.484-0.261,0.961-0.544,1.459-0.789c0.504-0.23,1.011-0.464,1.52-0.699c0.502-0.247,1.027-0.446,1.555-0.644
				c0.526-0.202,1.054-0.405,1.584-0.609c1.084-0.33,2.16-0.72,3.271-1.006c1.111-0.282,2.221-0.607,3.361-0.822
				c0.566-0.119,1.137-0.239,1.706-0.358c0.57-0.119,1.148-0.199,1.724-0.3c4.614-0.771,9.354-1.157,14.094-1.308
				c4.74-0.127,9.478-0.117,14.145,0.177c4.66,0.294,9.244,0.963,13.539,2.206c4.279,1.261,8.25,3.162,11.528,5.637
				c3.327,2.441,5.946,5.371,8.061,8.266c2.116,2.902,3.674,5.821,4.926,8.451c1.227,2.645,2.158,5.01,2.864,6.981
				c0.7,1.971,1.209,3.535,1.526,4.61c0.326,1.072,0.5,1.643,0.5,1.643s-0.183-0.568-0.523-1.636c-0.336-1.07-0.871-2.623-1.6-4.581
				c-0.735-1.957-1.702-4.304-2.969-6.92c-1.289-2.601-2.885-5.477-5.003-8.341c-2.12-2.853-4.749-5.734-8.039-8.104
				c-3.271-2.422-7.189-4.244-11.421-5.491c-4.248-1.213-8.792-1.865-13.427-2.145c-4.634-0.277-9.372-0.271-14.091-0.134
				c-4.719,0.137-9.434,0.507-14.018,1.259c-0.572,0.099-1.146,0.177-1.713,0.292c-0.566,0.116-1.13,0.232-1.693,0.35
				c-1.132,0.21-2.231,0.528-3.335,0.805c-1.102,0.281-2.165,0.665-3.239,0.986c-0.524,0.2-1.046,0.399-1.566,0.598
				c-0.521,0.192-1.041,0.389-1.537,0.631c-0.502,0.229-1.001,0.458-1.498,0.685c-0.492,0.24-0.961,0.517-1.439,0.772
				c-0.971,0.486-1.834,1.131-2.736,1.69c-1.705,1.262-3.264,2.662-4.531,4.224c-2.549,3.19-3.888,6.941-4.253,10.481
				c-0.414,3.548-0.046,6.849,0.501,9.696c0.553,2.856,1.298,5.29,2,7.256c0.331,0.991,0.676,1.858,0.977,2.613
				c0.288,0.758,0.559,1.394,0.787,1.905C202.384,161.31,202.622,161.858,202.622,161.858z"/>
			
				<linearGradient id="SVGID_00000066503665612566529640000006905498635192014504_" gradientUnits="userSpaceOnUse" x1="180.2082" y1="133.9045" x2="196.1675" y2="133.9045">
				<stop  offset="0" style="stop-color:#397639"/>
				<stop  offset="0.0018" style="stop-color:#397639"/>
				<stop  offset="0.1279" style="stop-color:#3B5A2A"/>
				<stop  offset="0.3642" style="stop-color:#9AAA92"/>
				<stop  offset="0.5399" style="stop-color:#DBE0D9"/>
				<stop  offset="0.6212" style="stop-color:#F4F5F5"/>
				<stop  offset="0.6823" style="stop-color:#C6C5C5"/>
				<stop  offset="0.7643" style="stop-color:#8E8B8C"/>
				<stop  offset="0.84" style="stop-color:#615D5F"/>
				<stop  offset="0.9069" style="stop-color:#413C3E"/>
				<stop  offset="0.9625" style="stop-color:#2E282A"/>
				<stop  offset="1" style="stop-color:#272123"/>
			</linearGradient>
			<path style="fill:url(#SVGID_00000066503665612566529640000006905498635192014504_);" d="M180.369,134.781
				c0,0,0.206-0.155,0.595-0.396c0.393-0.229,0.958-0.554,1.68-0.855c0.368-0.133,0.76-0.301,1.188-0.436
				c0.435-0.113,0.885-0.279,1.371-0.356c0.242-0.04,0.49-0.078,0.74-0.118c0.251-0.041,0.504-0.088,0.766-0.081
				c0.519,0,1.051-0.054,1.574-0.008c0.514,0.047,1.021,0.065,1.537,0.146c0.514,0.056,1.014,0.147,1.493,0.262
				c0.484,0.082,0.933,0.267,1.362,0.397c0.414,0.187,0.819,0.322,1.16,0.521c0.351,0.178,0.662,0.358,0.921,0.542
				c0.267,0.175,0.495,0.327,0.677,0.466c0.365,0.27,0.567,0.432,0.567,0.432s-0.23-0.12-0.63-0.328
				c-0.396-0.217-0.975-0.503-1.68-0.794c-0.343-0.166-0.746-0.265-1.154-0.41c-0.426-0.092-0.861-0.226-1.332-0.292
				c-0.234-0.04-0.472-0.08-0.711-0.121c-0.242-0.025-0.487-0.053-0.734-0.08c-0.486-0.071-1.011-0.082-1.522-0.122
				c-0.502-0.053-1.002-0.005-1.495-0.016c-0.494-0.002-0.977,0.1-1.447,0.14c-0.469,0.061-0.914,0.179-1.344,0.253
				c-0.426,0.096-0.818,0.227-1.188,0.328c-0.363,0.124-0.696,0.237-0.991,0.337c-0.291,0.115-0.545,0.215-0.754,0.297
				C180.607,134.67,180.369,134.781,180.369,134.781z"/>
		</g>
	</g>
</g>
</svg>
